<?xml version="1.0" encoding="utf-8" standalone="no"?>
<!DOCTYPE svg PUBLIC "-//W3C//DTD SVG 1.1//EN"
  "http://www.w3.org/Graphics/SVG/1.1/DTD/svg11.dtd">
<svg xmlns:xlink="http://www.w3.org/1999/xlink" width="567.781071pt" height="410.968187pt" viewBox="0 0 567.781071 410.968187" xmlns="http://www.w3.org/2000/svg" version="1.1">
 <metadata>
  <rdf:RDF xmlns:dc="http://purl.org/dc/elements/1.1/" xmlns:cc="http://creativecommons.org/ns#" xmlns:rdf="http://www.w3.org/1999/02/22-rdf-syntax-ns#">
   <cc:Work>
    <dc:type rdf:resource="http://purl.org/dc/dcmitype/StillImage"/>
    <dc:date>2026-05-22T12:51:38.664507</dc:date>
    <dc:format>image/svg+xml</dc:format>
    <dc:creator>
     <cc:Agent>
      <dc:title>Matplotlib v3.10.8, https://matplotlib.org/</dc:title>
     </cc:Agent>
    </dc:creator>
   </cc:Work>
  </rdf:RDF>
 </metadata>
 <defs>
  <style type="text/css">*{stroke-linejoin: round; stroke-linecap: butt}</style>
 </defs>
 <g id="figure_1">
  <g id="patch_1">
   <path d="M 0 410.968187 
L 567.781071 410.968187 
L 567.781071 0 
L 0 0 
z
" style="fill: #ffffff"/>
  </g>
  <g id="axes_1">
   <g id="patch_2">
    <path d="M 51.378125 272.712405 
L 560.581071 272.712405 
L 560.581071 20.798437 
L 51.378125 20.798437 
z
" style="fill: #ffffff"/>
   </g>
   <g id="matplotlib.axis_1">
    <g id="xtick_1">
     <g id="line2d_1">
      <path d="M 94.44432 272.712405 
L 94.44432 20.798437 
" clip-path="url(#pe9ea8c2b6e)" style="fill: none; stroke: #b0b0b0; stroke-opacity: 0.2; stroke-width: 0.8; stroke-linecap: square"/>
     </g>
     <g id="line2d_2">
      <defs>
       <path id="mf006d9ce21" d="M 0 0 
L 0 3.5 
" style="stroke: #000000; stroke-width: 0.8"/>
      </defs>
      <g>
       <use xlink:href="#mf006d9ce21" x="94.44432" y="272.712405" style="stroke: #000000; stroke-width: 0.8"/>
      </g>
     </g>
    </g>
    <g id="xtick_2">
     <g id="line2d_3">
      <path d="M 183.934685 272.712405 
L 183.934685 20.798437 
" clip-path="url(#pe9ea8c2b6e)" style="fill: none; stroke: #b0b0b0; stroke-opacity: 0.2; stroke-width: 0.8; stroke-linecap: square"/>
     </g>
     <g id="line2d_4">
      <g>
       <use xlink:href="#mf006d9ce21" x="183.934685" y="272.712405" style="stroke: #000000; stroke-width: 0.8"/>
      </g>
     </g>
    </g>
    <g id="xtick_3">
     <g id="line2d_5">
      <path d="M 273.425049 272.712405 
L 273.425049 20.798437 
" clip-path="url(#pe9ea8c2b6e)" style="fill: none; stroke: #b0b0b0; stroke-opacity: 0.2; stroke-width: 0.8; stroke-linecap: square"/>
     </g>
     <g id="line2d_6">
      <g>
       <use xlink:href="#mf006d9ce21" x="273.425049" y="272.712405" style="stroke: #000000; stroke-width: 0.8"/>
      </g>
     </g>
    </g>
    <g id="xtick_4">
     <g id="line2d_7">
      <path d="M 362.915414 272.712405 
L 362.915414 20.798437 
" clip-path="url(#pe9ea8c2b6e)" style="fill: none; stroke: #b0b0b0; stroke-opacity: 0.2; stroke-width: 0.8; stroke-linecap: square"/>
     </g>
     <g id="line2d_8">
      <g>
       <use xlink:href="#mf006d9ce21" x="362.915414" y="272.712405" style="stroke: #000000; stroke-width: 0.8"/>
      </g>
     </g>
    </g>
    <g id="xtick_5">
     <g id="line2d_9">
      <path d="M 452.405778 272.712405 
L 452.405778 20.798437 
" clip-path="url(#pe9ea8c2b6e)" style="fill: none; stroke: #b0b0b0; stroke-opacity: 0.2; stroke-width: 0.8; stroke-linecap: square"/>
     </g>
     <g id="line2d_10">
      <g>
       <use xlink:href="#mf006d9ce21" x="452.405778" y="272.712405" style="stroke: #000000; stroke-width: 0.8"/>
      </g>
     </g>
    </g>
    <g id="xtick_6">
     <g id="line2d_11">
      <path d="M 541.896143 272.712405 
L 541.896143 20.798437 
" clip-path="url(#pe9ea8c2b6e)" style="fill: none; stroke: #b0b0b0; stroke-opacity: 0.2; stroke-width: 0.8; stroke-linecap: square"/>
     </g>
     <g id="line2d_12">
      <g>
       <use xlink:href="#mf006d9ce21" x="541.896143" y="272.712405" style="stroke: #000000; stroke-width: 0.8"/>
      </g>
     </g>
    </g>
   </g>
   <g id="matplotlib.axis_2">
    <g id="ytick_1">
     <g id="line2d_13">
      <path d="M 51.378125 261.26177 
L 560.581071 261.26177 
" clip-path="url(#pe9ea8c2b6e)" style="fill: none; stroke: #b0b0b0; stroke-opacity: 0.2; stroke-width: 0.8; stroke-linecap: square"/>
     </g>
     <g id="line2d_14">
      <defs>
       <path id="m94e94a1edc" d="M 0 0 
L -3.5 0 
" style="stroke: #000000; stroke-width: 0.8"/>
      </defs>
      <g>
       <use xlink:href="#m94e94a1edc" x="51.378125" y="261.26177" style="stroke: #000000; stroke-width: 0.8"/>
      </g>
     </g>
     <g id="text_1">
      <!-- 0.0 -->
      <g transform="translate(28.475 265.060988) scale(0.1 -0.1)">
       <defs>
        <path id="DejaVuSans-30" d="M 2034 4250 
Q 1547 4250 1301 3770 
Q 1056 3291 1056 2328 
Q 1056 1369 1301 889 
Q 1547 409 2034 409 
Q 2525 409 2770 889 
Q 3016 1369 3016 2328 
Q 3016 3291 2770 3770 
Q 2525 4250 2034 4250 
z
M 2034 4750 
Q 2819 4750 3233 4129 
Q 3647 3509 3647 2328 
Q 3647 1150 3233 529 
Q 2819 -91 2034 -91 
Q 1250 -91 836 529 
Q 422 1150 422 2328 
Q 422 3509 836 4129 
Q 1250 4750 2034 4750 
z
" transform="scale(0.015625)"/>
        <path id="DejaVuSans-2e" d="M 684 794 
L 1344 794 
L 1344 0 
L 684 0 
L 684 794 
z
" transform="scale(0.015625)"/>
       </defs>
       <use xlink:href="#DejaVuSans-30"/>
       <use xlink:href="#DejaVuSans-2e" transform="translate(63.623047 0)"/>
       <use xlink:href="#DejaVuSans-30" transform="translate(95.410156 0)"/>
      </g>
     </g>
    </g>
    <g id="ytick_2">
     <g id="line2d_15">
      <path d="M 51.378125 208.576294 
L 560.581071 208.576294 
" clip-path="url(#pe9ea8c2b6e)" style="fill: none; stroke: #b0b0b0; stroke-opacity: 0.2; stroke-width: 0.8; stroke-linecap: square"/>
     </g>
     <g id="line2d_16">
      <g>
       <use xlink:href="#m94e94a1edc" x="51.378125" y="208.576294" style="stroke: #000000; stroke-width: 0.8"/>
      </g>
     </g>
     <g id="text_2">
      <!-- 0.5 -->
      <g transform="translate(28.475 212.375513) scale(0.1 -0.1)">
       <defs>
        <path id="DejaVuSans-35" d="M 691 4666 
L 3169 4666 
L 3169 4134 
L 1269 4134 
L 1269 2991 
Q 1406 3038 1543 3061 
Q 1681 3084 1819 3084 
Q 2600 3084 3056 2656 
Q 3513 2228 3513 1497 
Q 3513 744 3044 326 
Q 2575 -91 1722 -91 
Q 1428 -91 1123 -41 
Q 819 9 494 109 
L 494 744 
Q 775 591 1075 516 
Q 1375 441 1709 441 
Q 2250 441 2565 725 
Q 2881 1009 2881 1497 
Q 2881 1984 2565 2268 
Q 2250 2553 1709 2553 
Q 1456 2553 1204 2497 
Q 953 2441 691 2322 
L 691 4666 
z
" transform="scale(0.015625)"/>
       </defs>
       <use xlink:href="#DejaVuSans-30"/>
       <use xlink:href="#DejaVuSans-2e" transform="translate(63.623047 0)"/>
       <use xlink:href="#DejaVuSans-35" transform="translate(95.410156 0)"/>
      </g>
     </g>
    </g>
    <g id="ytick_3">
     <g id="line2d_17">
      <path d="M 51.378125 155.890819 
L 560.581071 155.890819 
" clip-path="url(#pe9ea8c2b6e)" style="fill: none; stroke: #b0b0b0; stroke-opacity: 0.2; stroke-width: 0.8; stroke-linecap: square"/>
     </g>
     <g id="line2d_18">
      <g>
       <use xlink:href="#m94e94a1edc" x="51.378125" y="155.890819" style="stroke: #000000; stroke-width: 0.8"/>
      </g>
     </g>
     <g id="text_3">
      <!-- 1.0 -->
      <g transform="translate(28.475 159.690038) scale(0.1 -0.1)">
       <defs>
        <path id="DejaVuSans-31" d="M 794 531 
L 1825 531 
L 1825 4091 
L 703 3866 
L 703 4441 
L 1819 4666 
L 2450 4666 
L 2450 531 
L 3481 531 
L 3481 0 
L 794 0 
L 794 531 
z
" transform="scale(0.015625)"/>
       </defs>
       <use xlink:href="#DejaVuSans-31"/>
       <use xlink:href="#DejaVuSans-2e" transform="translate(63.623047 0)"/>
       <use xlink:href="#DejaVuSans-30" transform="translate(95.410156 0)"/>
      </g>
     </g>
    </g>
    <g id="ytick_4">
     <g id="line2d_19">
      <path d="M 51.378125 103.205344 
L 560.581071 103.205344 
" clip-path="url(#pe9ea8c2b6e)" style="fill: none; stroke: #b0b0b0; stroke-opacity: 0.2; stroke-width: 0.8; stroke-linecap: square"/>
     </g>
     <g id="line2d_20">
      <g>
       <use xlink:href="#m94e94a1edc" x="51.378125" y="103.205344" style="stroke: #000000; stroke-width: 0.8"/>
      </g>
     </g>
     <g id="text_4">
      <!-- 1.5 -->
      <g transform="translate(28.475 107.004562) scale(0.1 -0.1)">
       <use xlink:href="#DejaVuSans-31"/>
       <use xlink:href="#DejaVuSans-2e" transform="translate(63.623047 0)"/>
       <use xlink:href="#DejaVuSans-35" transform="translate(95.410156 0)"/>
      </g>
     </g>
    </g>
    <g id="ytick_5">
     <g id="line2d_21">
      <path d="M 51.378125 50.519868 
L 560.581071 50.519868 
" clip-path="url(#pe9ea8c2b6e)" style="fill: none; stroke: #b0b0b0; stroke-opacity: 0.2; stroke-width: 0.8; stroke-linecap: square"/>
     </g>
     <g id="line2d_22">
      <g>
       <use xlink:href="#m94e94a1edc" x="51.378125" y="50.519868" style="stroke: #000000; stroke-width: 0.8"/>
      </g>
     </g>
     <g id="text_5">
      <!-- 2.0 -->
      <g transform="translate(28.475 54.319087) scale(0.1 -0.1)">
       <defs>
        <path id="DejaVuSans-32" d="M 1228 531 
L 3431 531 
L 3431 0 
L 469 0 
L 469 531 
Q 828 903 1448 1529 
Q 2069 2156 2228 2338 
Q 2531 2678 2651 2914 
Q 2772 3150 2772 3378 
Q 2772 3750 2511 3984 
Q 2250 4219 1831 4219 
Q 1534 4219 1204 4116 
Q 875 4013 500 3803 
L 500 4441 
Q 881 4594 1212 4672 
Q 1544 4750 1819 4750 
Q 2544 4750 2975 4387 
Q 3406 4025 3406 3419 
Q 3406 3131 3298 2873 
Q 3191 2616 2906 2266 
Q 2828 2175 2409 1742 
Q 1991 1309 1228 531 
z
" transform="scale(0.015625)"/>
       </defs>
       <use xlink:href="#DejaVuSans-32"/>
       <use xlink:href="#DejaVuSans-2e" transform="translate(63.623047 0)"/>
       <use xlink:href="#DejaVuSans-30" transform="translate(95.410156 0)"/>
      </g>
     </g>
    </g>
    <g id="text_6">
     <!-- $H(v', V)\ [\mathrm{cm}^3/\mathrm{s}]$ -->
     <g transform="translate(22.395312 184.555421) rotate(-90) scale(0.1 -0.1)">
      <defs>
       <path id="DejaVuSans-Oblique-48" d="M 1081 4666 
L 1716 4666 
L 1344 2753 
L 3634 2753 
L 4006 4666 
L 4641 4666 
L 3731 0 
L 3097 0 
L 3531 2222 
L 1241 2222 
L 806 0 
L 172 0 
L 1081 4666 
z
" transform="scale(0.015625)"/>
       <path id="DejaVuSans-28" d="M 1984 4856 
Q 1566 4138 1362 3434 
Q 1159 2731 1159 2009 
Q 1159 1288 1364 580 
Q 1569 -128 1984 -844 
L 1484 -844 
Q 1016 -109 783 600 
Q 550 1309 550 2009 
Q 550 2706 781 3412 
Q 1013 4119 1484 4856 
L 1984 4856 
z
" transform="scale(0.015625)"/>
       <path id="DejaVuSans-Oblique-76" d="M 459 3500 
L 1069 3500 
L 1581 525 
L 3256 3500 
L 3866 3500 
L 1875 0 
L 1100 0 
L 459 3500 
z
" transform="scale(0.015625)"/>
       <path id="Cmsy10-30" d="M 225 347 
Q 184 359 184 409 
L 966 3316 
Q 1003 3434 1093 3506 
Q 1184 3578 1300 3578 
Q 1450 3578 1564 3479 
Q 1678 3381 1678 3231 
Q 1678 3166 1644 3084 
L 488 319 
Q 466 275 428 275 
Q 394 275 320 306 
Q 247 338 225 347 
z
" transform="scale(0.015625)"/>
       <path id="DejaVuSans-2c" d="M 750 794 
L 1409 794 
L 1409 256 
L 897 -744 
L 494 -744 
L 750 256 
L 750 794 
z
" transform="scale(0.015625)"/>
       <path id="DejaVuSans-Oblique-56" d="M 1319 0 
L 500 4666 
L 1119 4666 
L 1797 653 
L 4063 4666 
L 4750 4666 
L 2053 0 
L 1319 0 
z
" transform="scale(0.015625)"/>
       <path id="DejaVuSans-29" d="M 513 4856 
L 1013 4856 
Q 1481 4119 1714 3412 
Q 1947 2706 1947 2009 
Q 1947 1309 1714 600 
Q 1481 -109 1013 -844 
L 513 -844 
Q 928 -128 1133 580 
Q 1338 1288 1338 2009 
Q 1338 2731 1133 3434 
Q 928 4138 513 4856 
z
" transform="scale(0.015625)"/>
       <path id="DejaVuSans-5b" d="M 550 4863 
L 1875 4863 
L 1875 4416 
L 1125 4416 
L 1125 -397 
L 1875 -397 
L 1875 -844 
L 550 -844 
L 550 4863 
z
" transform="scale(0.015625)"/>
       <path id="DejaVuSans-63" d="M 3122 3366 
L 3122 2828 
Q 2878 2963 2633 3030 
Q 2388 3097 2138 3097 
Q 1578 3097 1268 2742 
Q 959 2388 959 1747 
Q 959 1106 1268 751 
Q 1578 397 2138 397 
Q 2388 397 2633 464 
Q 2878 531 3122 666 
L 3122 134 
Q 2881 22 2623 -34 
Q 2366 -91 2075 -91 
Q 1284 -91 818 406 
Q 353 903 353 1747 
Q 353 2603 823 3093 
Q 1294 3584 2113 3584 
Q 2378 3584 2631 3529 
Q 2884 3475 3122 3366 
z
" transform="scale(0.015625)"/>
       <path id="DejaVuSans-6d" d="M 3328 2828 
Q 3544 3216 3844 3400 
Q 4144 3584 4550 3584 
Q 5097 3584 5394 3201 
Q 5691 2819 5691 2113 
L 5691 0 
L 5113 0 
L 5113 2094 
Q 5113 2597 4934 2840 
Q 4756 3084 4391 3084 
Q 3944 3084 3684 2787 
Q 3425 2491 3425 1978 
L 3425 0 
L 2847 0 
L 2847 2094 
Q 2847 2600 2669 2842 
Q 2491 3084 2119 3084 
Q 1678 3084 1418 2786 
Q 1159 2488 1159 1978 
L 1159 0 
L 581 0 
L 581 3500 
L 1159 3500 
L 1159 2956 
Q 1356 3278 1631 3431 
Q 1906 3584 2284 3584 
Q 2666 3584 2933 3390 
Q 3200 3197 3328 2828 
z
" transform="scale(0.015625)"/>
       <path id="DejaVuSans-33" d="M 2597 2516 
Q 3050 2419 3304 2112 
Q 3559 1806 3559 1356 
Q 3559 666 3084 287 
Q 2609 -91 1734 -91 
Q 1441 -91 1130 -33 
Q 819 25 488 141 
L 488 750 
Q 750 597 1062 519 
Q 1375 441 1716 441 
Q 2309 441 2620 675 
Q 2931 909 2931 1356 
Q 2931 1769 2642 2001 
Q 2353 2234 1838 2234 
L 1294 2234 
L 1294 2753 
L 1863 2753 
Q 2328 2753 2575 2939 
Q 2822 3125 2822 3475 
Q 2822 3834 2567 4026 
Q 2313 4219 1838 4219 
Q 1578 4219 1281 4162 
Q 984 4106 628 3988 
L 628 4550 
Q 988 4650 1302 4700 
Q 1616 4750 1894 4750 
Q 2613 4750 3031 4423 
Q 3450 4097 3450 3541 
Q 3450 3153 3228 2886 
Q 3006 2619 2597 2516 
z
" transform="scale(0.015625)"/>
       <path id="DejaVuSans-2f" d="M 1625 4666 
L 2156 4666 
L 531 -594 
L 0 -594 
L 1625 4666 
z
" transform="scale(0.015625)"/>
       <path id="DejaVuSans-73" d="M 2834 3397 
L 2834 2853 
Q 2591 2978 2328 3040 
Q 2066 3103 1784 3103 
Q 1356 3103 1142 2972 
Q 928 2841 928 2578 
Q 928 2378 1081 2264 
Q 1234 2150 1697 2047 
L 1894 2003 
Q 2506 1872 2764 1633 
Q 3022 1394 3022 966 
Q 3022 478 2636 193 
Q 2250 -91 1575 -91 
Q 1294 -91 989 -36 
Q 684 19 347 128 
L 347 722 
Q 666 556 975 473 
Q 1284 391 1588 391 
Q 1994 391 2212 530 
Q 2431 669 2431 922 
Q 2431 1156 2273 1281 
Q 2116 1406 1581 1522 
L 1381 1569 
Q 847 1681 609 1914 
Q 372 2147 372 2553 
Q 372 3047 722 3315 
Q 1072 3584 1716 3584 
Q 2034 3584 2315 3537 
Q 2597 3491 2834 3397 
z
" transform="scale(0.015625)"/>
       <path id="DejaVuSans-5d" d="M 1947 4863 
L 1947 -844 
L 622 -844 
L 622 -397 
L 1369 -397 
L 1369 4416 
L 622 4416 
L 622 4863 
L 1947 4863 
z
" transform="scale(0.015625)"/>
      </defs>
      <use xlink:href="#DejaVuSans-Oblique-48" transform="translate(0 0.765625)"/>
      <use xlink:href="#DejaVuSans-28" transform="translate(75.195312 0.765625)"/>
      <use xlink:href="#DejaVuSans-Oblique-76" transform="translate(114.208984 0.765625)"/>
      <use xlink:href="#Cmsy10-30" transform="translate(177.854818 39.046875) scale(0.7)"/>
      <use xlink:href="#DejaVuSans-2c" transform="translate(199.832357 0.765625)"/>
      <use xlink:href="#DejaVuSans-Oblique-56" transform="translate(251.101888 0.765625)"/>
      <use xlink:href="#DejaVuSans-29" transform="translate(319.510091 0.765625)"/>
      <use xlink:href="#DejaVuSans-5b" transform="translate(390.994141 0.765625)"/>
      <use xlink:href="#DejaVuSans-63" transform="translate(430.007813 0.765625)"/>
      <use xlink:href="#DejaVuSans-6d" transform="translate(484.988282 0.765625)"/>
      <use xlink:href="#DejaVuSans-33" transform="translate(583.357423 39.046875) scale(0.7)"/>
      <use xlink:href="#DejaVuSans-2f" transform="translate(630.627931 0.765625)"/>
      <use xlink:href="#DejaVuSans-73" transform="translate(664.319337 0.765625)"/>
      <use xlink:href="#DejaVuSans-5d" transform="translate(716.418946 0.765625)"/>
     </g>
    </g>
    <g id="text_7">
     <!-- 1e6 -->
     <g transform="translate(51.378125 17.798437) scale(0.1 -0.1)">
      <defs>
       <path id="DejaVuSans-65" d="M 3597 1894 
L 3597 1613 
L 953 1613 
Q 991 1019 1311 708 
Q 1631 397 2203 397 
Q 2534 397 2845 478 
Q 3156 559 3463 722 
L 3463 178 
Q 3153 47 2828 -22 
Q 2503 -91 2169 -91 
Q 1331 -91 842 396 
Q 353 884 353 1716 
Q 353 2575 817 3079 
Q 1281 3584 2069 3584 
Q 2775 3584 3186 3129 
Q 3597 2675 3597 1894 
z
M 3022 2063 
Q 3016 2534 2758 2815 
Q 2500 3097 2075 3097 
Q 1594 3097 1305 2825 
Q 1016 2553 972 2059 
L 3022 2063 
z
" transform="scale(0.015625)"/>
       <path id="DejaVuSans-36" d="M 2113 2584 
Q 1688 2584 1439 2293 
Q 1191 2003 1191 1497 
Q 1191 994 1439 701 
Q 1688 409 2113 409 
Q 2538 409 2786 701 
Q 3034 994 3034 1497 
Q 3034 2003 2786 2293 
Q 2538 2584 2113 2584 
z
M 3366 4563 
L 3366 3988 
Q 3128 4100 2886 4159 
Q 2644 4219 2406 4219 
Q 1781 4219 1451 3797 
Q 1122 3375 1075 2522 
Q 1259 2794 1537 2939 
Q 1816 3084 2150 3084 
Q 2853 3084 3261 2657 
Q 3669 2231 3669 1497 
Q 3669 778 3244 343 
Q 2819 -91 2113 -91 
Q 1303 -91 875 529 
Q 447 1150 447 2328 
Q 447 3434 972 4092 
Q 1497 4750 2381 4750 
Q 2619 4750 2861 4703 
Q 3103 4656 3366 4563 
z
" transform="scale(0.015625)"/>
      </defs>
      <use xlink:href="#DejaVuSans-31"/>
      <use xlink:href="#DejaVuSans-65" transform="translate(63.623047 0)"/>
      <use xlink:href="#DejaVuSans-36" transform="translate(125.146484 0)"/>
     </g>
    </g>
   </g>
   <g id="line2d_23">
    <path d="M 74.523713 261.26177 
L 103.569158 261.246604 
L 107.199838 260.970583 
L 114.461199 260.263965 
L 118.09188 260.165099 
L 121.722561 260.343303 
L 127.168581 260.798515 
L 130.799262 260.924304 
L 132.614602 260.898421 
L 134.429942 260.635223 
L 136.245283 259.700727 
L 138.060623 257.347596 
L 139.875963 252.71594 
L 141.691303 245.041269 
L 143.506644 233.787862 
L 145.321984 218.766033 
L 147.137324 200.265227 
L 150.768005 157.035833 
L 152.583345 135.691348 
L 154.398685 116.921594 
L 156.214026 102.020918 
L 158.029366 91.623992 
L 159.844706 85.748139 
L 161.660046 83.881016 
L 163.475387 85.1115 
L 165.290727 88.0884 
L 167.106067 91.472528 
L 168.921408 94.019332 
L 170.736748 94.873538 
L 172.552088 93.559913 
L 174.367428 89.883598 
L 176.182769 83.950012 
L 177.998109 76.116252 
L 183.44413 49.022874 
L 185.25947 41.710374 
L 187.07481 36.312905 
L 188.890151 33.108809 
L 190.705491 32.249072 
L 192.520831 33.422243 
L 194.336171 36.301623 
L 196.151512 40.300982 
L 203.412873 58.13135 
L 207.043553 66.247703 
L 210.674234 73.818757 
L 214.304914 80.853181 
L 217.935595 87.479056 
L 221.566275 93.585977 
L 225.196956 99.444807 
L 228.827637 104.882575 
L 234.273657 112.436093 
L 237.904338 117.103772 
L 241.535018 121.511314 
L 245.165699 125.686783 
L 250.61172 131.49808 
L 256.057741 136.860239 
L 261.503761 141.813022 
L 266.949782 146.395855 
L 272.395803 150.625996 
L 277.841824 154.56229 
L 283.287845 158.214163 
L 288.733865 161.605539 
L 294.179886 164.763889 
L 299.625907 167.724625 
L 310.517949 172.985404 
L 315.96397 175.352091 
L 328.671351 180.282733 
L 335.932713 182.74407 
L 345.009414 185.475784 
L 352.270775 187.429883 
L 361.347476 189.570635 
L 368.608837 191.065536 
L 375.870198 192.365544 
L 383.13156 193.486775 
L 392.208261 194.590434 
L 399.469622 195.253225 
L 406.730983 195.716283 
L 412.177004 195.89635 
L 417.623025 195.862187 
L 421.253705 195.654887 
L 424.884386 195.242911 
L 428.515066 194.596539 
L 432.145747 193.700742 
L 435.776427 192.56004 
L 439.407108 191.152162 
L 448.483809 187.255955 
L 450.29915 186.716517 
L 452.11449 186.402675 
L 453.92983 186.373064 
L 455.74517 186.705693 
L 457.560511 187.437977 
L 459.375851 188.606039 
L 461.191191 190.223101 
L 463.006532 192.284424 
L 464.821872 194.785786 
L 466.637212 197.696634 
L 468.452552 201.00567 
L 470.267893 204.703509 
L 472.083233 208.775492 
L 473.898573 213.200168 
L 477.529254 222.877525 
L 482.975274 237.96337 
L 484.790615 242.600471 
L 486.605955 246.815211 
L 488.421295 250.508154 
L 490.236636 253.615054 
L 492.051976 256.115486 
L 493.867316 258.024868 
L 495.682656 259.390271 
L 497.497997 260.289998 
L 499.313337 260.821736 
L 501.128677 261.094487 
L 504.759358 261.249291 
L 531.989462 261.26177 
L 537.435483 261.26177 
L 537.435483 261.26177 
" clip-path="url(#pe9ea8c2b6e)" style="fill: none; stroke: #000000; stroke-width: 1.5; stroke-linecap: square"/>
   </g>
   <g id="patch_3">
    <path d="M 51.378125 272.712405 
L 51.378125 20.798437 
" style="fill: none; stroke: #000000; stroke-width: 0.8; stroke-linejoin: miter; stroke-linecap: square"/>
   </g>
   <g id="patch_4">
    <path d="M 560.581071 272.712405 
L 560.581071 20.798437 
" style="fill: none; stroke: #000000; stroke-width: 0.8; stroke-linejoin: miter; stroke-linecap: square"/>
   </g>
   <g id="patch_5">
    <path d="M 51.378125 272.712405 
L 560.581071 272.712405 
" style="fill: none; stroke: #000000; stroke-width: 0.8; stroke-linejoin: miter; stroke-linecap: square"/>
   </g>
   <g id="patch_6">
    <path d="M 51.378125 20.798437 
L 560.581071 20.798437 
" style="fill: none; stroke: #000000; stroke-width: 0.8; stroke-linejoin: miter; stroke-linecap: square"/>
   </g>
   <g id="PathCollection_1">
    <defs>
     <path id="ma01988ec14" d="M 0 1.414214 
C 0.375054 1.414214 0.734797 1.265203 1 1 
C 1.265203 0.734797 1.414214 0.375054 1.414214 0 
C 1.414214 -0.375054 1.265203 -0.734797 1 -1 
C 0.734797 -1.265203 0.375054 -1.414214 0 -1.414214 
C -0.375054 -1.414214 -0.734797 -1.265203 -1 -1 
C -1.265203 -0.734797 -1.414214 -0.375054 -1.414214 0 
C -1.414214 0.375054 -1.265203 0.734797 -1 1 
C -0.734797 1.265203 -0.375054 1.414214 0 1.414214 
z
" style="stroke: #ff0000"/>
    </defs>
    <g clip-path="url(#pe9ea8c2b6e)">
     <use xlink:href="#ma01988ec14" x="74.523713" y="261.26177" style="fill: #ff0000; stroke: #ff0000"/>
     <use xlink:href="#ma01988ec14" x="81.871519" y="261.26177" style="fill: #ff0000; stroke: #ff0000"/>
     <use xlink:href="#ma01988ec14" x="89.219325" y="261.26177" style="fill: #ff0000; stroke: #ff0000"/>
     <use xlink:href="#ma01988ec14" x="96.567131" y="261.26177" style="fill: #ff0000; stroke: #ff0000"/>
     <use xlink:href="#ma01988ec14" x="103.914937" y="261.249699" style="fill: #ff0000; stroke: #ff0000"/>
     <use xlink:href="#ma01988ec14" x="111.262743" y="260.747232" style="fill: #ff0000; stroke: #ff0000"/>
     <use xlink:href="#ma01988ec14" x="118.610549" y="260.302337" style="fill: #ff0000; stroke: #ff0000"/>
     <use xlink:href="#ma01988ec14" x="125.958354" y="260.729656" style="fill: #ff0000; stroke: #ff0000"/>
     <use xlink:href="#ma01988ec14" x="133.30616" y="260.839672" style="fill: #ff0000; stroke: #ff0000"/>
     <use xlink:href="#ma01988ec14" x="140.653966" y="249.853795" style="fill: #ff0000; stroke: #ff0000"/>
     <use xlink:href="#ma01988ec14" x="148.001772" y="190.618368" style="fill: #ff0000; stroke: #ff0000"/>
     <use xlink:href="#ma01988ec14" x="155.349578" y="108.813202" style="fill: #ff0000; stroke: #ff0000"/>
     <use xlink:href="#ma01988ec14" x="162.697384" y="84.485313" style="fill: #ff0000; stroke: #ff0000"/>
     <use xlink:href="#ma01988ec14" x="170.04519" y="95.002144" style="fill: #ff0000; stroke: #ff0000"/>
     <use xlink:href="#ma01988ec14" x="177.392995" y="79.160816" style="fill: #ff0000; stroke: #ff0000"/>
     <use xlink:href="#ma01988ec14" x="184.740801" y="43.924745" style="fill: #ff0000; stroke: #ff0000"/>
     <use xlink:href="#ma01988ec14" x="192.088607" y="33.255492" style="fill: #ff0000; stroke: #ff0000"/>
     <use xlink:href="#ma01988ec14" x="199.436413" y="48.747203" style="fill: #ff0000; stroke: #ff0000"/>
     <use xlink:href="#ma01988ec14" x="206.784219" y="65.924545" style="fill: #ff0000; stroke: #ff0000"/>
     <use xlink:href="#ma01988ec14" x="214.132025" y="80.778783" style="fill: #ff0000; stroke: #ff0000"/>
     <use xlink:href="#ma01988ec14" x="221.479831" y="93.719809" style="fill: #ff0000; stroke: #ff0000"/>
     <use xlink:href="#ma01988ec14" x="228.827637" y="105.074204" style="fill: #ff0000; stroke: #ff0000"/>
     <use xlink:href="#ma01988ec14" x="236.175442" y="115.097732" style="fill: #ff0000; stroke: #ff0000"/>
     <use xlink:href="#ma01988ec14" x="243.523248" y="123.993655" style="fill: #ff0000; stroke: #ff0000"/>
     <use xlink:href="#ma01988ec14" x="250.871054" y="131.925581" style="fill: #ff0000; stroke: #ff0000"/>
     <use xlink:href="#ma01988ec14" x="258.21886" y="139.02665" style="fill: #ff0000; stroke: #ff0000"/>
     <use xlink:href="#ma01988ec14" x="265.566666" y="145.406253" style="fill: #ff0000; stroke: #ff0000"/>
     <use xlink:href="#ma01988ec14" x="272.914472" y="151.155022" style="fill: #ff0000; stroke: #ff0000"/>
     <use xlink:href="#ma01988ec14" x="280.262278" y="156.348582" style="fill: #ff0000; stroke: #ff0000"/>
     <use xlink:href="#ma01988ec14" x="287.610083" y="161.050428" style="fill: #ff0000; stroke: #ff0000"/>
     <use xlink:href="#ma01988ec14" x="294.957889" y="165.314136" style="fill: #ff0000; stroke: #ff0000"/>
     <use xlink:href="#ma01988ec14" x="302.305695" y="169.185089" style="fill: #ff0000; stroke: #ff0000"/>
     <use xlink:href="#ma01988ec14" x="309.653501" y="172.701834" style="fill: #ff0000; stroke: #ff0000"/>
     <use xlink:href="#ma01988ec14" x="317.001307" y="175.897145" style="fill: #ff0000; stroke: #ff0000"/>
     <use xlink:href="#ma01988ec14" x="324.349113" y="178.798865" style="fill: #ff0000; stroke: #ff0000"/>
     <use xlink:href="#ma01988ec14" x="331.696919" y="181.430575" style="fill: #ff0000; stroke: #ff0000"/>
     <use xlink:href="#ma01988ec14" x="339.044724" y="183.8121" style="fill: #ff0000; stroke: #ff0000"/>
     <use xlink:href="#ma01988ec14" x="346.39253" y="185.959908" style="fill: #ff0000; stroke: #ff0000"/>
     <use xlink:href="#ma01988ec14" x="353.740336" y="187.887384" style="fill: #ff0000; stroke: #ff0000"/>
     <use xlink:href="#ma01988ec14" x="361.088142" y="189.605015" style="fill: #ff0000; stroke: #ff0000"/>
     <use xlink:href="#ma01988ec14" x="368.435948" y="191.120464" style="fill: #ff0000; stroke: #ff0000"/>
     <use xlink:href="#ma01988ec14" x="375.783754" y="192.438545" style="fill: #ff0000; stroke: #ff0000"/>
     <use xlink:href="#ma01988ec14" x="383.13156" y="193.561063" style="fill: #ff0000; stroke: #ff0000"/>
     <use xlink:href="#ma01988ec14" x="390.479365" y="194.486507" style="fill: #ff0000; stroke: #ff0000"/>
     <use xlink:href="#ma01988ec14" x="397.827171" y="195.209539" style="fill: #ff0000; stroke: #ff0000"/>
     <use xlink:href="#ma01988ec14" x="405.174977" y="195.720121" style="fill: #ff0000; stroke: #ff0000"/>
     <use xlink:href="#ma01988ec14" x="412.522783" y="195.985177" style="fill: #ff0000; stroke: #ff0000"/>
     <use xlink:href="#ma01988ec14" x="419.870589" y="195.840226" style="fill: #ff0000; stroke: #ff0000"/>
     <use xlink:href="#ma01988ec14" x="427.218395" y="194.939711" style="fill: #ff0000; stroke: #ff0000"/>
     <use xlink:href="#ma01988ec14" x="434.566201" y="193.059875" style="fill: #ff0000; stroke: #ff0000"/>
     <use xlink:href="#ma01988ec14" x="441.914006" y="190.147863" style="fill: #ff0000; stroke: #ff0000"/>
     <use xlink:href="#ma01988ec14" x="449.261812" y="187.094464" style="fill: #ff0000; stroke: #ff0000"/>
     <use xlink:href="#ma01988ec14" x="456.609618" y="187.090661" style="fill: #ff0000; stroke: #ff0000"/>
     <use xlink:href="#ma01988ec14" x="463.957424" y="193.62154" style="fill: #ff0000; stroke: #ff0000"/>
     <use xlink:href="#ma01988ec14" x="471.30523" y="207.046101" style="fill: #ff0000; stroke: #ff0000"/>
     <use xlink:href="#ma01988ec14" x="478.653036" y="226.052469" style="fill: #ff0000; stroke: #ff0000"/>
     <use xlink:href="#ma01988ec14" x="486.000842" y="245.481495" style="fill: #ff0000; stroke: #ff0000"/>
     <use xlink:href="#ma01988ec14" x="493.348647" y="257.541334" style="fill: #ff0000; stroke: #ff0000"/>
     <use xlink:href="#ma01988ec14" x="500.696453" y="261.048152" style="fill: #ff0000; stroke: #ff0000"/>
     <use xlink:href="#ma01988ec14" x="508.044259" y="261.260496" style="fill: #ff0000; stroke: #ff0000"/>
     <use xlink:href="#ma01988ec14" x="515.392065" y="261.261665" style="fill: #ff0000; stroke: #ff0000"/>
     <use xlink:href="#ma01988ec14" x="522.739871" y="261.26177" style="fill: #ff0000; stroke: #ff0000"/>
     <use xlink:href="#ma01988ec14" x="530.087677" y="261.26177" style="fill: #ff0000; stroke: #ff0000"/>
     <use xlink:href="#ma01988ec14" x="537.435483" y="261.26177" style="fill: #ff0000; stroke: #ff0000"/>
    </g>
   </g>
   <g id="text_8">
    <!-- Angular-collapsed response at V=5000 V, m/q=4, bulk=450 km/s @ (az=5°, el=-10°) -->
    <g transform="translate(91.929598 14.798437) scale(0.1 -0.1)">
     <defs>
      <path id="DejaVuSans-41" d="M 2188 4044 
L 1331 1722 
L 3047 1722 
L 2188 4044 
z
M 1831 4666 
L 2547 4666 
L 4325 0 
L 3669 0 
L 3244 1197 
L 1141 1197 
L 716 0 
L 50 0 
L 1831 4666 
z
" transform="scale(0.015625)"/>
      <path id="DejaVuSans-6e" d="M 3513 2113 
L 3513 0 
L 2938 0 
L 2938 2094 
Q 2938 2591 2744 2837 
Q 2550 3084 2163 3084 
Q 1697 3084 1428 2787 
Q 1159 2491 1159 1978 
L 1159 0 
L 581 0 
L 581 3500 
L 1159 3500 
L 1159 2956 
Q 1366 3272 1645 3428 
Q 1925 3584 2291 3584 
Q 2894 3584 3203 3211 
Q 3513 2838 3513 2113 
z
" transform="scale(0.015625)"/>
      <path id="DejaVuSans-67" d="M 2906 1791 
Q 2906 2416 2648 2759 
Q 2391 3103 1925 3103 
Q 1463 3103 1205 2759 
Q 947 2416 947 1791 
Q 947 1169 1205 825 
Q 1463 481 1925 481 
Q 2391 481 2648 825 
Q 2906 1169 2906 1791 
z
M 3481 434 
Q 3481 -459 3084 -895 
Q 2688 -1331 1869 -1331 
Q 1566 -1331 1297 -1286 
Q 1028 -1241 775 -1147 
L 775 -588 
Q 1028 -725 1275 -790 
Q 1522 -856 1778 -856 
Q 2344 -856 2625 -561 
Q 2906 -266 2906 331 
L 2906 616 
Q 2728 306 2450 153 
Q 2172 0 1784 0 
Q 1141 0 747 490 
Q 353 981 353 1791 
Q 353 2603 747 3093 
Q 1141 3584 1784 3584 
Q 2172 3584 2450 3431 
Q 2728 3278 2906 2969 
L 2906 3500 
L 3481 3500 
L 3481 434 
z
" transform="scale(0.015625)"/>
      <path id="DejaVuSans-75" d="M 544 1381 
L 544 3500 
L 1119 3500 
L 1119 1403 
Q 1119 906 1312 657 
Q 1506 409 1894 409 
Q 2359 409 2629 706 
Q 2900 1003 2900 1516 
L 2900 3500 
L 3475 3500 
L 3475 0 
L 2900 0 
L 2900 538 
Q 2691 219 2414 64 
Q 2138 -91 1772 -91 
Q 1169 -91 856 284 
Q 544 659 544 1381 
z
M 1991 3584 
L 1991 3584 
z
" transform="scale(0.015625)"/>
      <path id="DejaVuSans-6c" d="M 603 4863 
L 1178 4863 
L 1178 0 
L 603 0 
L 603 4863 
z
" transform="scale(0.015625)"/>
      <path id="DejaVuSans-61" d="M 2194 1759 
Q 1497 1759 1228 1600 
Q 959 1441 959 1056 
Q 959 750 1161 570 
Q 1363 391 1709 391 
Q 2188 391 2477 730 
Q 2766 1069 2766 1631 
L 2766 1759 
L 2194 1759 
z
M 3341 1997 
L 3341 0 
L 2766 0 
L 2766 531 
Q 2569 213 2275 61 
Q 1981 -91 1556 -91 
Q 1019 -91 701 211 
Q 384 513 384 1019 
Q 384 1609 779 1909 
Q 1175 2209 1959 2209 
L 2766 2209 
L 2766 2266 
Q 2766 2663 2505 2880 
Q 2244 3097 1772 3097 
Q 1472 3097 1187 3025 
Q 903 2953 641 2809 
L 641 3341 
Q 956 3463 1253 3523 
Q 1550 3584 1831 3584 
Q 2591 3584 2966 3190 
Q 3341 2797 3341 1997 
z
" transform="scale(0.015625)"/>
      <path id="DejaVuSans-72" d="M 2631 2963 
Q 2534 3019 2420 3045 
Q 2306 3072 2169 3072 
Q 1681 3072 1420 2755 
Q 1159 2438 1159 1844 
L 1159 0 
L 581 0 
L 581 3500 
L 1159 3500 
L 1159 2956 
Q 1341 3275 1631 3429 
Q 1922 3584 2338 3584 
Q 2397 3584 2469 3576 
Q 2541 3569 2628 3553 
L 2631 2963 
z
" transform="scale(0.015625)"/>
      <path id="DejaVuSans-2d" d="M 313 2009 
L 1997 2009 
L 1997 1497 
L 313 1497 
L 313 2009 
z
" transform="scale(0.015625)"/>
      <path id="DejaVuSans-6f" d="M 1959 3097 
Q 1497 3097 1228 2736 
Q 959 2375 959 1747 
Q 959 1119 1226 758 
Q 1494 397 1959 397 
Q 2419 397 2687 759 
Q 2956 1122 2956 1747 
Q 2956 2369 2687 2733 
Q 2419 3097 1959 3097 
z
M 1959 3584 
Q 2709 3584 3137 3096 
Q 3566 2609 3566 1747 
Q 3566 888 3137 398 
Q 2709 -91 1959 -91 
Q 1206 -91 779 398 
Q 353 888 353 1747 
Q 353 2609 779 3096 
Q 1206 3584 1959 3584 
z
" transform="scale(0.015625)"/>
      <path id="DejaVuSans-70" d="M 1159 525 
L 1159 -1331 
L 581 -1331 
L 581 3500 
L 1159 3500 
L 1159 2969 
Q 1341 3281 1617 3432 
Q 1894 3584 2278 3584 
Q 2916 3584 3314 3078 
Q 3713 2572 3713 1747 
Q 3713 922 3314 415 
Q 2916 -91 2278 -91 
Q 1894 -91 1617 61 
Q 1341 213 1159 525 
z
M 3116 1747 
Q 3116 2381 2855 2742 
Q 2594 3103 2138 3103 
Q 1681 3103 1420 2742 
Q 1159 2381 1159 1747 
Q 1159 1113 1420 752 
Q 1681 391 2138 391 
Q 2594 391 2855 752 
Q 3116 1113 3116 1747 
z
" transform="scale(0.015625)"/>
      <path id="DejaVuSans-64" d="M 2906 2969 
L 2906 4863 
L 3481 4863 
L 3481 0 
L 2906 0 
L 2906 525 
Q 2725 213 2448 61 
Q 2172 -91 1784 -91 
Q 1150 -91 751 415 
Q 353 922 353 1747 
Q 353 2572 751 3078 
Q 1150 3584 1784 3584 
Q 2172 3584 2448 3432 
Q 2725 3281 2906 2969 
z
M 947 1747 
Q 947 1113 1208 752 
Q 1469 391 1925 391 
Q 2381 391 2643 752 
Q 2906 1113 2906 1747 
Q 2906 2381 2643 2742 
Q 2381 3103 1925 3103 
Q 1469 3103 1208 2742 
Q 947 2381 947 1747 
z
" transform="scale(0.015625)"/>
      <path id="DejaVuSans-20" transform="scale(0.015625)"/>
      <path id="DejaVuSans-74" d="M 1172 4494 
L 1172 3500 
L 2356 3500 
L 2356 3053 
L 1172 3053 
L 1172 1153 
Q 1172 725 1289 603 
Q 1406 481 1766 481 
L 2356 481 
L 2356 0 
L 1766 0 
Q 1100 0 847 248 
Q 594 497 594 1153 
L 594 3053 
L 172 3053 
L 172 3500 
L 594 3500 
L 594 4494 
L 1172 4494 
z
" transform="scale(0.015625)"/>
      <path id="DejaVuSans-56" d="M 1831 0 
L 50 4666 
L 709 4666 
L 2188 738 
L 3669 4666 
L 4325 4666 
L 2547 0 
L 1831 0 
z
" transform="scale(0.015625)"/>
      <path id="DejaVuSans-3d" d="M 678 2906 
L 4684 2906 
L 4684 2381 
L 678 2381 
L 678 2906 
z
M 678 1631 
L 4684 1631 
L 4684 1100 
L 678 1100 
L 678 1631 
z
" transform="scale(0.015625)"/>
      <path id="DejaVuSans-71" d="M 947 1747 
Q 947 1113 1208 752 
Q 1469 391 1925 391 
Q 2381 391 2643 752 
Q 2906 1113 2906 1747 
Q 2906 2381 2643 2742 
Q 2381 3103 1925 3103 
Q 1469 3103 1208 2742 
Q 947 2381 947 1747 
z
M 2906 525 
Q 2725 213 2448 61 
Q 2172 -91 1784 -91 
Q 1150 -91 751 415 
Q 353 922 353 1747 
Q 353 2572 751 3078 
Q 1150 3584 1784 3584 
Q 2172 3584 2448 3432 
Q 2725 3281 2906 2969 
L 2906 3500 
L 3481 3500 
L 3481 -1331 
L 2906 -1331 
L 2906 525 
z
" transform="scale(0.015625)"/>
      <path id="DejaVuSans-34" d="M 2419 4116 
L 825 1625 
L 2419 1625 
L 2419 4116 
z
M 2253 4666 
L 3047 4666 
L 3047 1625 
L 3713 1625 
L 3713 1100 
L 3047 1100 
L 3047 0 
L 2419 0 
L 2419 1100 
L 313 1100 
L 313 1709 
L 2253 4666 
z
" transform="scale(0.015625)"/>
      <path id="DejaVuSans-62" d="M 3116 1747 
Q 3116 2381 2855 2742 
Q 2594 3103 2138 3103 
Q 1681 3103 1420 2742 
Q 1159 2381 1159 1747 
Q 1159 1113 1420 752 
Q 1681 391 2138 391 
Q 2594 391 2855 752 
Q 3116 1113 3116 1747 
z
M 1159 2969 
Q 1341 3281 1617 3432 
Q 1894 3584 2278 3584 
Q 2916 3584 3314 3078 
Q 3713 2572 3713 1747 
Q 3713 922 3314 415 
Q 2916 -91 2278 -91 
Q 1894 -91 1617 61 
Q 1341 213 1159 525 
L 1159 0 
L 581 0 
L 581 4863 
L 1159 4863 
L 1159 2969 
z
" transform="scale(0.015625)"/>
      <path id="DejaVuSans-6b" d="M 581 4863 
L 1159 4863 
L 1159 1991 
L 2875 3500 
L 3609 3500 
L 1753 1863 
L 3688 0 
L 2938 0 
L 1159 1709 
L 1159 0 
L 581 0 
L 581 4863 
z
" transform="scale(0.015625)"/>
      <path id="DejaVuSans-40" d="M 2381 1678 
Q 2381 1231 2603 976 
Q 2825 722 3213 722 
Q 3597 722 3817 978 
Q 4038 1234 4038 1678 
Q 4038 2116 3813 2373 
Q 3588 2631 3206 2631 
Q 2828 2631 2604 2375 
Q 2381 2119 2381 1678 
z
M 4084 744 
Q 3897 503 3655 389 
Q 3413 275 3091 275 
Q 2553 275 2217 664 
Q 1881 1053 1881 1678 
Q 1881 2303 2218 2693 
Q 2556 3084 3091 3084 
Q 3413 3084 3656 2967 
Q 3900 2850 4084 2613 
L 4084 3022 
L 4531 3022 
L 4531 722 
Q 4988 791 5245 1139 
Q 5503 1488 5503 2041 
Q 5503 2375 5404 2669 
Q 5306 2963 5106 3213 
Q 4781 3622 4314 3839 
Q 3847 4056 3297 4056 
Q 2913 4056 2559 3954 
Q 2206 3853 1906 3653 
Q 1416 3334 1139 2817 
Q 863 2300 863 1697 
Q 863 1200 1042 765 
Q 1222 331 1563 0 
Q 1891 -325 2322 -495 
Q 2753 -666 3244 -666 
Q 3647 -666 4036 -530 
Q 4425 -394 4750 -141 
L 5031 -488 
Q 4641 -791 4180 -952 
Q 3719 -1113 3244 -1113 
Q 2666 -1113 2153 -908 
Q 1641 -703 1241 -313 
Q 841 78 631 592 
Q 422 1106 422 1697 
Q 422 2266 634 2781 
Q 847 3297 1241 3688 
Q 1644 4084 2172 4295 
Q 2700 4506 3291 4506 
Q 3953 4506 4520 4234 
Q 5088 3963 5472 3463 
Q 5706 3156 5829 2797 
Q 5953 2438 5953 2053 
Q 5953 1231 5456 756 
Q 4959 281 4084 263 
L 4084 744 
z
" transform="scale(0.015625)"/>
      <path id="DejaVuSans-7a" d="M 353 3500 
L 3084 3500 
L 3084 2975 
L 922 459 
L 3084 459 
L 3084 0 
L 275 0 
L 275 525 
L 2438 3041 
L 353 3041 
L 353 3500 
z
" transform="scale(0.015625)"/>
      <path id="DejaVuSans-b0" d="M 1600 4347 
Q 1350 4347 1178 4173 
Q 1006 4000 1006 3750 
Q 1006 3503 1178 3333 
Q 1350 3163 1600 3163 
Q 1850 3163 2022 3333 
Q 2194 3503 2194 3750 
Q 2194 3997 2020 4172 
Q 1847 4347 1600 4347 
z
M 1600 4750 
Q 1800 4750 1984 4673 
Q 2169 4597 2303 4453 
Q 2447 4313 2519 4134 
Q 2591 3956 2591 3750 
Q 2591 3338 2302 3052 
Q 2013 2766 1594 2766 
Q 1172 2766 890 3047 
Q 609 3328 609 3750 
Q 609 4169 896 4459 
Q 1184 4750 1600 4750 
z
" transform="scale(0.015625)"/>
     </defs>
     <use xlink:href="#DejaVuSans-41"/>
     <use xlink:href="#DejaVuSans-6e" transform="translate(68.408203 0)"/>
     <use xlink:href="#DejaVuSans-67" transform="translate(131.787109 0)"/>
     <use xlink:href="#DejaVuSans-75" transform="translate(195.263672 0)"/>
     <use xlink:href="#DejaVuSans-6c" transform="translate(258.642578 0)"/>
     <use xlink:href="#DejaVuSans-61" transform="translate(286.425781 0)"/>
     <use xlink:href="#DejaVuSans-72" transform="translate(347.705078 0)"/>
     <use xlink:href="#DejaVuSans-2d" transform="translate(382.443359 0)"/>
     <use xlink:href="#DejaVuSans-63" transform="translate(418.527344 0)"/>
     <use xlink:href="#DejaVuSans-6f" transform="translate(473.507812 0)"/>
     <use xlink:href="#DejaVuSans-6c" transform="translate(534.689453 0)"/>
     <use xlink:href="#DejaVuSans-6c" transform="translate(562.472656 0)"/>
     <use xlink:href="#DejaVuSans-61" transform="translate(590.255859 0)"/>
     <use xlink:href="#DejaVuSans-70" transform="translate(651.535156 0)"/>
     <use xlink:href="#DejaVuSans-73" transform="translate(715.011719 0)"/>
     <use xlink:href="#DejaVuSans-65" transform="translate(767.111328 0)"/>
     <use xlink:href="#DejaVuSans-64" transform="translate(828.634766 0)"/>
     <use xlink:href="#DejaVuSans-20" transform="translate(892.111328 0)"/>
     <use xlink:href="#DejaVuSans-72" transform="translate(923.898438 0)"/>
     <use xlink:href="#DejaVuSans-65" transform="translate(962.761719 0)"/>
     <use xlink:href="#DejaVuSans-73" transform="translate(1024.285156 0)"/>
     <use xlink:href="#DejaVuSans-70" transform="translate(1076.384766 0)"/>
     <use xlink:href="#DejaVuSans-6f" transform="translate(1139.861328 0)"/>
     <use xlink:href="#DejaVuSans-6e" transform="translate(1201.042969 0)"/>
     <use xlink:href="#DejaVuSans-73" transform="translate(1264.421875 0)"/>
     <use xlink:href="#DejaVuSans-65" transform="translate(1316.521484 0)"/>
     <use xlink:href="#DejaVuSans-20" transform="translate(1378.044922 0)"/>
     <use xlink:href="#DejaVuSans-61" transform="translate(1409.832031 0)"/>
     <use xlink:href="#DejaVuSans-74" transform="translate(1471.111328 0)"/>
     <use xlink:href="#DejaVuSans-20" transform="translate(1510.320312 0)"/>
     <use xlink:href="#DejaVuSans-56" transform="translate(1542.107422 0)"/>
     <use xlink:href="#DejaVuSans-3d" transform="translate(1610.515625 0)"/>
     <use xlink:href="#DejaVuSans-35" transform="translate(1694.304688 0)"/>
     <use xlink:href="#DejaVuSans-30" transform="translate(1757.927734 0)"/>
     <use xlink:href="#DejaVuSans-30" transform="translate(1821.550781 0)"/>
     <use xlink:href="#DejaVuSans-30" transform="translate(1885.173828 0)"/>
     <use xlink:href="#DejaVuSans-20" transform="translate(1948.796875 0)"/>
     <use xlink:href="#DejaVuSans-56" transform="translate(1980.583984 0)"/>
     <use xlink:href="#DejaVuSans-2c" transform="translate(2048.992188 0)"/>
     <use xlink:href="#DejaVuSans-20" transform="translate(2080.779297 0)"/>
     <use xlink:href="#DejaVuSans-6d" transform="translate(2112.566406 0)"/>
     <use xlink:href="#DejaVuSans-2f" transform="translate(2209.978516 0)"/>
     <use xlink:href="#DejaVuSans-71" transform="translate(2243.669922 0)"/>
     <use xlink:href="#DejaVuSans-3d" transform="translate(2307.146484 0)"/>
     <use xlink:href="#DejaVuSans-34" transform="translate(2390.935547 0)"/>
     <use xlink:href="#DejaVuSans-2c" transform="translate(2454.558594 0)"/>
     <use xlink:href="#DejaVuSans-20" transform="translate(2486.345703 0)"/>
     <use xlink:href="#DejaVuSans-62" transform="translate(2518.132812 0)"/>
     <use xlink:href="#DejaVuSans-75" transform="translate(2581.609375 0)"/>
     <use xlink:href="#DejaVuSans-6c" transform="translate(2644.988281 0)"/>
     <use xlink:href="#DejaVuSans-6b" transform="translate(2672.771484 0)"/>
     <use xlink:href="#DejaVuSans-3d" transform="translate(2730.681641 0)"/>
     <use xlink:href="#DejaVuSans-34" transform="translate(2814.470703 0)"/>
     <use xlink:href="#DejaVuSans-35" transform="translate(2878.09375 0)"/>
     <use xlink:href="#DejaVuSans-30" transform="translate(2941.716797 0)"/>
     <use xlink:href="#DejaVuSans-20" transform="translate(3005.339844 0)"/>
     <use xlink:href="#DejaVuSans-6b" transform="translate(3037.126953 0)"/>
     <use xlink:href="#DejaVuSans-6d" transform="translate(3095.037109 0)"/>
     <use xlink:href="#DejaVuSans-2f" transform="translate(3192.449219 0)"/>
     <use xlink:href="#DejaVuSans-73" transform="translate(3226.140625 0)"/>
     <use xlink:href="#DejaVuSans-20" transform="translate(3278.240234 0)"/>
     <use xlink:href="#DejaVuSans-40" transform="translate(3310.027344 0)"/>
     <use xlink:href="#DejaVuSans-20" transform="translate(3410.027344 0)"/>
     <use xlink:href="#DejaVuSans-28" transform="translate(3441.814453 0)"/>
     <use xlink:href="#DejaVuSans-61" transform="translate(3480.828125 0)"/>
     <use xlink:href="#DejaVuSans-7a" transform="translate(3542.107422 0)"/>
     <use xlink:href="#DejaVuSans-3d" transform="translate(3594.597656 0)"/>
     <use xlink:href="#DejaVuSans-35" transform="translate(3678.386719 0)"/>
     <use xlink:href="#DejaVuSans-b0" transform="translate(3742.009766 0)"/>
     <use xlink:href="#DejaVuSans-2c" transform="translate(3792.009766 0)"/>
     <use xlink:href="#DejaVuSans-20" transform="translate(3823.796875 0)"/>
     <use xlink:href="#DejaVuSans-65" transform="translate(3855.583984 0)"/>
     <use xlink:href="#DejaVuSans-6c" transform="translate(3917.107422 0)"/>
     <use xlink:href="#DejaVuSans-3d" transform="translate(3944.890625 0)"/>
     <use xlink:href="#DejaVuSans-2d" transform="translate(4028.679688 0)"/>
     <use xlink:href="#DejaVuSans-31" transform="translate(4064.763672 0)"/>
     <use xlink:href="#DejaVuSans-30" transform="translate(4128.386719 0)"/>
     <use xlink:href="#DejaVuSans-b0" transform="translate(4192.009766 0)"/>
     <use xlink:href="#DejaVuSans-29" transform="translate(4242.009766 0)"/>
    </g>
   </g>
   <g id="legend_1">
    <g id="patch_7">
     <path d="M 479.412321 54.419062 
L 554.281071 54.419062 
Q 556.081071 54.419062 556.081071 52.619062 
L 556.081071 27.098437 
Q 556.081071 25.298437 554.281071 25.298437 
L 479.412321 25.298437 
Q 477.612321 25.298437 477.612321 27.098437 
L 477.612321 52.619062 
Q 477.612321 54.419062 479.412321 54.419062 
z
" style="fill: #ffffff; opacity: 0.8; stroke: #cccccc; stroke-linejoin: miter"/>
    </g>
    <g id="line2d_24">
     <path d="M 481.212321 32.587031 
L 490.212321 32.587031 
L 499.212321 32.587031 
" style="fill: none; stroke: #000000; stroke-width: 1.5; stroke-linecap: square"/>
    </g>
    <g id="text_9">
     <!-- Reference -->
     <g transform="translate(506.412321 35.737031) scale(0.09 -0.09)">
      <defs>
       <path id="DejaVuSans-52" d="M 2841 2188 
Q 3044 2119 3236 1894 
Q 3428 1669 3622 1275 
L 4263 0 
L 3584 0 
L 2988 1197 
Q 2756 1666 2539 1819 
Q 2322 1972 1947 1972 
L 1259 1972 
L 1259 0 
L 628 0 
L 628 4666 
L 2053 4666 
Q 2853 4666 3247 4331 
Q 3641 3997 3641 3322 
Q 3641 2881 3436 2590 
Q 3231 2300 2841 2188 
z
M 1259 4147 
L 1259 2491 
L 2053 2491 
Q 2509 2491 2742 2702 
Q 2975 2913 2975 3322 
Q 2975 3731 2742 3939 
Q 2509 4147 2053 4147 
L 1259 4147 
z
" transform="scale(0.015625)"/>
       <path id="DejaVuSans-66" d="M 2375 4863 
L 2375 4384 
L 1825 4384 
Q 1516 4384 1395 4259 
Q 1275 4134 1275 3809 
L 1275 3500 
L 2222 3500 
L 2222 3053 
L 1275 3053 
L 1275 0 
L 697 0 
L 697 3053 
L 147 3053 
L 147 3500 
L 697 3500 
L 697 3744 
Q 697 4328 969 4595 
Q 1241 4863 1831 4863 
L 2375 4863 
z
" transform="scale(0.015625)"/>
      </defs>
      <use xlink:href="#DejaVuSans-52"/>
      <use xlink:href="#DejaVuSans-65" transform="translate(64.982422 0)"/>
      <use xlink:href="#DejaVuSans-66" transform="translate(126.505859 0)"/>
      <use xlink:href="#DejaVuSans-65" transform="translate(161.710938 0)"/>
      <use xlink:href="#DejaVuSans-72" transform="translate(223.234375 0)"/>
      <use xlink:href="#DejaVuSans-65" transform="translate(262.097656 0)"/>
      <use xlink:href="#DejaVuSans-6e" transform="translate(323.621094 0)"/>
      <use xlink:href="#DejaVuSans-63" transform="translate(387 0)"/>
      <use xlink:href="#DejaVuSans-65" transform="translate(441.980469 0)"/>
     </g>
    </g>
    <g id="PathCollection_2">
     <g>
      <use xlink:href="#ma01988ec14" x="490.212321" y="46.584844" style="fill: #ff0000; stroke: #ff0000"/>
     </g>
    </g>
    <g id="text_10">
     <!-- Optimized -->
     <g transform="translate(506.412321 48.947344) scale(0.09 -0.09)">
      <defs>
       <path id="DejaVuSans-4f" d="M 2522 4238 
Q 1834 4238 1429 3725 
Q 1025 3213 1025 2328 
Q 1025 1447 1429 934 
Q 1834 422 2522 422 
Q 3209 422 3611 934 
Q 4013 1447 4013 2328 
Q 4013 3213 3611 3725 
Q 3209 4238 2522 4238 
z
M 2522 4750 
Q 3503 4750 4090 4092 
Q 4678 3434 4678 2328 
Q 4678 1225 4090 567 
Q 3503 -91 2522 -91 
Q 1538 -91 948 565 
Q 359 1222 359 2328 
Q 359 3434 948 4092 
Q 1538 4750 2522 4750 
z
" transform="scale(0.015625)"/>
       <path id="DejaVuSans-69" d="M 603 3500 
L 1178 3500 
L 1178 0 
L 603 0 
L 603 3500 
z
M 603 4863 
L 1178 4863 
L 1178 4134 
L 603 4134 
L 603 4863 
z
" transform="scale(0.015625)"/>
      </defs>
      <use xlink:href="#DejaVuSans-4f"/>
      <use xlink:href="#DejaVuSans-70" transform="translate(78.710938 0)"/>
      <use xlink:href="#DejaVuSans-74" transform="translate(142.1875 0)"/>
      <use xlink:href="#DejaVuSans-69" transform="translate(181.396484 0)"/>
      <use xlink:href="#DejaVuSans-6d" transform="translate(209.179688 0)"/>
      <use xlink:href="#DejaVuSans-69" transform="translate(306.591797 0)"/>
      <use xlink:href="#DejaVuSans-7a" transform="translate(334.375 0)"/>
      <use xlink:href="#DejaVuSans-65" transform="translate(386.865234 0)"/>
      <use xlink:href="#DejaVuSans-64" transform="translate(448.388672 0)"/>
     </g>
    </g>
   </g>
  </g>
  <g id="axes_2">
   <g id="patch_8">
    <path d="M 51.378125 373.411937 
L 560.581071 373.411937 
L 560.581071 289.440615 
L 51.378125 289.440615 
z
" style="fill: #ffffff"/>
   </g>
   <g id="matplotlib.axis_3">
    <g id="xtick_7">
     <g id="line2d_25">
      <path d="M 94.44432 373.411937 
L 94.44432 289.440615 
" clip-path="url(#p47aac89e17)" style="fill: none; stroke: #b0b0b0; stroke-opacity: 0.2; stroke-width: 0.8; stroke-linecap: square"/>
     </g>
     <g id="line2d_26">
      <g>
       <use xlink:href="#mf006d9ce21" x="94.44432" y="373.411937" style="stroke: #000000; stroke-width: 0.8"/>
      </g>
     </g>
     <g id="text_11">
      <!-- 200 -->
      <g transform="translate(84.90057 388.010375) scale(0.1 -0.1)">
       <use xlink:href="#DejaVuSans-32"/>
       <use xlink:href="#DejaVuSans-30" transform="translate(63.623047 0)"/>
       <use xlink:href="#DejaVuSans-30" transform="translate(127.246094 0)"/>
      </g>
     </g>
    </g>
    <g id="xtick_8">
     <g id="line2d_27">
      <path d="M 183.934685 373.411937 
L 183.934685 289.440615 
" clip-path="url(#p47aac89e17)" style="fill: none; stroke: #b0b0b0; stroke-opacity: 0.2; stroke-width: 0.8; stroke-linecap: square"/>
     </g>
     <g id="line2d_28">
      <g>
       <use xlink:href="#mf006d9ce21" x="183.934685" y="373.411937" style="stroke: #000000; stroke-width: 0.8"/>
      </g>
     </g>
     <g id="text_12">
      <!-- 400 -->
      <g transform="translate(174.390935 388.010375) scale(0.1 -0.1)">
       <use xlink:href="#DejaVuSans-34"/>
       <use xlink:href="#DejaVuSans-30" transform="translate(63.623047 0)"/>
       <use xlink:href="#DejaVuSans-30" transform="translate(127.246094 0)"/>
      </g>
     </g>
    </g>
    <g id="xtick_9">
     <g id="line2d_29">
      <path d="M 273.425049 373.411937 
L 273.425049 289.440615 
" clip-path="url(#p47aac89e17)" style="fill: none; stroke: #b0b0b0; stroke-opacity: 0.2; stroke-width: 0.8; stroke-linecap: square"/>
     </g>
     <g id="line2d_30">
      <g>
       <use xlink:href="#mf006d9ce21" x="273.425049" y="373.411937" style="stroke: #000000; stroke-width: 0.8"/>
      </g>
     </g>
     <g id="text_13">
      <!-- 600 -->
      <g transform="translate(263.881299 388.010375) scale(0.1 -0.1)">
       <use xlink:href="#DejaVuSans-36"/>
       <use xlink:href="#DejaVuSans-30" transform="translate(63.623047 0)"/>
       <use xlink:href="#DejaVuSans-30" transform="translate(127.246094 0)"/>
      </g>
     </g>
    </g>
    <g id="xtick_10">
     <g id="line2d_31">
      <path d="M 362.915414 373.411937 
L 362.915414 289.440615 
" clip-path="url(#p47aac89e17)" style="fill: none; stroke: #b0b0b0; stroke-opacity: 0.2; stroke-width: 0.8; stroke-linecap: square"/>
     </g>
     <g id="line2d_32">
      <g>
       <use xlink:href="#mf006d9ce21" x="362.915414" y="373.411937" style="stroke: #000000; stroke-width: 0.8"/>
      </g>
     </g>
     <g id="text_14">
      <!-- 800 -->
      <g transform="translate(353.371664 388.010375) scale(0.1 -0.1)">
       <defs>
        <path id="DejaVuSans-38" d="M 2034 2216 
Q 1584 2216 1326 1975 
Q 1069 1734 1069 1313 
Q 1069 891 1326 650 
Q 1584 409 2034 409 
Q 2484 409 2743 651 
Q 3003 894 3003 1313 
Q 3003 1734 2745 1975 
Q 2488 2216 2034 2216 
z
M 1403 2484 
Q 997 2584 770 2862 
Q 544 3141 544 3541 
Q 544 4100 942 4425 
Q 1341 4750 2034 4750 
Q 2731 4750 3128 4425 
Q 3525 4100 3525 3541 
Q 3525 3141 3298 2862 
Q 3072 2584 2669 2484 
Q 3125 2378 3379 2068 
Q 3634 1759 3634 1313 
Q 3634 634 3220 271 
Q 2806 -91 2034 -91 
Q 1263 -91 848 271 
Q 434 634 434 1313 
Q 434 1759 690 2068 
Q 947 2378 1403 2484 
z
M 1172 3481 
Q 1172 3119 1398 2916 
Q 1625 2713 2034 2713 
Q 2441 2713 2670 2916 
Q 2900 3119 2900 3481 
Q 2900 3844 2670 4047 
Q 2441 4250 2034 4250 
Q 1625 4250 1398 4047 
Q 1172 3844 1172 3481 
z
" transform="scale(0.015625)"/>
       </defs>
       <use xlink:href="#DejaVuSans-38"/>
       <use xlink:href="#DejaVuSans-30" transform="translate(63.623047 0)"/>
       <use xlink:href="#DejaVuSans-30" transform="translate(127.246094 0)"/>
      </g>
     </g>
    </g>
    <g id="xtick_11">
     <g id="line2d_33">
      <path d="M 452.405778 373.411937 
L 452.405778 289.440615 
" clip-path="url(#p47aac89e17)" style="fill: none; stroke: #b0b0b0; stroke-opacity: 0.2; stroke-width: 0.8; stroke-linecap: square"/>
     </g>
     <g id="line2d_34">
      <g>
       <use xlink:href="#mf006d9ce21" x="452.405778" y="373.411937" style="stroke: #000000; stroke-width: 0.8"/>
      </g>
     </g>
     <g id="text_15">
      <!-- 1000 -->
      <g transform="translate(439.680778 388.010375) scale(0.1 -0.1)">
       <use xlink:href="#DejaVuSans-31"/>
       <use xlink:href="#DejaVuSans-30" transform="translate(63.623047 0)"/>
       <use xlink:href="#DejaVuSans-30" transform="translate(127.246094 0)"/>
       <use xlink:href="#DejaVuSans-30" transform="translate(190.869141 0)"/>
      </g>
     </g>
    </g>
    <g id="xtick_12">
     <g id="line2d_35">
      <path d="M 541.896143 373.411937 
L 541.896143 289.440615 
" clip-path="url(#p47aac89e17)" style="fill: none; stroke: #b0b0b0; stroke-opacity: 0.2; stroke-width: 0.8; stroke-linecap: square"/>
     </g>
     <g id="line2d_36">
      <g>
       <use xlink:href="#mf006d9ce21" x="541.896143" y="373.411937" style="stroke: #000000; stroke-width: 0.8"/>
      </g>
     </g>
     <g id="text_16">
      <!-- 1200 -->
      <g transform="translate(529.171143 388.010375) scale(0.1 -0.1)">
       <use xlink:href="#DejaVuSans-31"/>
       <use xlink:href="#DejaVuSans-32" transform="translate(63.623047 0)"/>
       <use xlink:href="#DejaVuSans-30" transform="translate(127.246094 0)"/>
       <use xlink:href="#DejaVuSans-30" transform="translate(190.869141 0)"/>
      </g>
     </g>
    </g>
    <g id="text_17">
     <!-- $v'\ [\mathrm{km}/\mathrm{s}]$ -->
     <g transform="translate(284.079598 401.6885) scale(0.1 -0.1)">
      <use xlink:href="#DejaVuSans-Oblique-76" transform="translate(0 0.584375)"/>
      <use xlink:href="#Cmsy10-30" transform="translate(63.645833 38.865625) scale(0.7)"/>
      <use xlink:href="#DejaVuSans-5b" transform="translate(118.093751 0.584375)"/>
      <use xlink:href="#DejaVuSans-6b" transform="translate(157.107423 0.584375)"/>
      <use xlink:href="#DejaVuSans-6d" transform="translate(215.017579 0.584375)"/>
      <use xlink:href="#DejaVuSans-2f" transform="translate(312.429688 0.584375)"/>
      <use xlink:href="#DejaVuSans-73" transform="translate(346.121095 0.584375)"/>
      <use xlink:href="#DejaVuSans-5d" transform="translate(398.220704 0.584375)"/>
     </g>
    </g>
   </g>
   <g id="matplotlib.axis_4">
    <g id="ytick_6">
     <g id="line2d_37">
      <path d="M 51.378125 373.411937 
L 560.581071 373.411937 
" clip-path="url(#p47aac89e17)" style="fill: none; stroke: #b0b0b0; stroke-opacity: 0.2; stroke-width: 0.8; stroke-linecap: square"/>
     </g>
     <g id="line2d_38">
      <g>
       <use xlink:href="#m94e94a1edc" x="51.378125" y="373.411937" style="stroke: #000000; stroke-width: 0.8"/>
      </g>
     </g>
     <g id="text_18">
      <!-- $\mathdefault{10^{-4}}$ -->
      <g transform="translate(20.878125 377.211156) scale(0.1 -0.1)">
       <defs>
        <path id="DejaVuSans-2212" d="M 678 2272 
L 4684 2272 
L 4684 1741 
L 678 1741 
L 678 2272 
z
" transform="scale(0.015625)"/>
       </defs>
       <use xlink:href="#DejaVuSans-31" transform="translate(0 0.684375)"/>
       <use xlink:href="#DejaVuSans-30" transform="translate(63.623047 0.684375)"/>
       <use xlink:href="#DejaVuSans-2212" transform="translate(128.203125 38.965625) scale(0.7)"/>
       <use xlink:href="#DejaVuSans-34" transform="translate(186.855469 38.965625) scale(0.7)"/>
      </g>
     </g>
    </g>
    <g id="ytick_7">
     <g id="line2d_39">
      <path d="M 51.378125 353.304302 
L 560.581071 353.304302 
" clip-path="url(#p47aac89e17)" style="fill: none; stroke: #b0b0b0; stroke-opacity: 0.2; stroke-width: 0.8; stroke-linecap: square"/>
     </g>
     <g id="line2d_40">
      <g>
       <use xlink:href="#m94e94a1edc" x="51.378125" y="353.304302" style="stroke: #000000; stroke-width: 0.8"/>
      </g>
     </g>
     <g id="text_19">
      <!-- $\mathdefault{10^{-3}}$ -->
      <g transform="translate(20.878125 357.10352) scale(0.1 -0.1)">
       <use xlink:href="#DejaVuSans-31" transform="translate(0 0.765625)"/>
       <use xlink:href="#DejaVuSans-30" transform="translate(63.623047 0.765625)"/>
       <use xlink:href="#DejaVuSans-2212" transform="translate(128.203125 39.046875) scale(0.7)"/>
       <use xlink:href="#DejaVuSans-33" transform="translate(186.855469 39.046875) scale(0.7)"/>
      </g>
     </g>
    </g>
    <g id="ytick_8">
     <g id="line2d_41">
      <path d="M 51.378125 333.196666 
L 560.581071 333.196666 
" clip-path="url(#p47aac89e17)" style="fill: none; stroke: #b0b0b0; stroke-opacity: 0.2; stroke-width: 0.8; stroke-linecap: square"/>
     </g>
     <g id="line2d_42">
      <g>
       <use xlink:href="#m94e94a1edc" x="51.378125" y="333.196666" style="stroke: #000000; stroke-width: 0.8"/>
      </g>
     </g>
     <g id="text_20">
      <!-- $\mathdefault{10^{-2}}$ -->
      <g transform="translate(20.878125 336.995885) scale(0.1 -0.1)">
       <use xlink:href="#DejaVuSans-31" transform="translate(0 0.765625)"/>
       <use xlink:href="#DejaVuSans-30" transform="translate(63.623047 0.765625)"/>
       <use xlink:href="#DejaVuSans-2212" transform="translate(128.203125 39.046875) scale(0.7)"/>
       <use xlink:href="#DejaVuSans-32" transform="translate(186.855469 39.046875) scale(0.7)"/>
      </g>
     </g>
    </g>
    <g id="ytick_9">
     <g id="line2d_43">
      <path d="M 51.378125 313.08903 
L 560.581071 313.08903 
" clip-path="url(#p47aac89e17)" style="fill: none; stroke: #b0b0b0; stroke-opacity: 0.2; stroke-width: 0.8; stroke-linecap: square"/>
     </g>
     <g id="line2d_44">
      <g>
       <use xlink:href="#m94e94a1edc" x="51.378125" y="313.08903" style="stroke: #000000; stroke-width: 0.8"/>
      </g>
     </g>
     <g id="text_21">
      <!-- $\mathdefault{10^{-1}}$ -->
      <g transform="translate(20.878125 316.888249) scale(0.1 -0.1)">
       <use xlink:href="#DejaVuSans-31" transform="translate(0 0.684375)"/>
       <use xlink:href="#DejaVuSans-30" transform="translate(63.623047 0.684375)"/>
       <use xlink:href="#DejaVuSans-2212" transform="translate(128.203125 38.965625) scale(0.7)"/>
       <use xlink:href="#DejaVuSans-31" transform="translate(186.855469 38.965625) scale(0.7)"/>
      </g>
     </g>
    </g>
    <g id="ytick_10">
     <g id="line2d_45">
      <path d="M 51.378125 292.981394 
L 560.581071 292.981394 
" clip-path="url(#p47aac89e17)" style="fill: none; stroke: #b0b0b0; stroke-opacity: 0.2; stroke-width: 0.8; stroke-linecap: square"/>
     </g>
     <g id="line2d_46">
      <g>
       <use xlink:href="#m94e94a1edc" x="51.378125" y="292.981394" style="stroke: #000000; stroke-width: 0.8"/>
      </g>
     </g>
     <g id="text_22">
      <!-- $\mathdefault{10^{0}}$ -->
      <g transform="translate(26.778125 296.780613) scale(0.1 -0.1)">
       <use xlink:href="#DejaVuSans-31" transform="translate(0 0.765625)"/>
       <use xlink:href="#DejaVuSans-30" transform="translate(63.623047 0.765625)"/>
       <use xlink:href="#DejaVuSans-30" transform="translate(128.203125 39.046875) scale(0.7)"/>
      </g>
     </g>
    </g>
    <g id="ytick_11">
     <g id="line2d_47">
      <defs>
       <path id="m658ad28e29" d="M 0 0 
L -2 0 
" style="stroke: #000000; stroke-width: 0.6"/>
      </defs>
      <g>
       <use xlink:href="#m658ad28e29" x="51.378125" y="367.358936" style="stroke: #000000; stroke-width: 0.6"/>
      </g>
     </g>
    </g>
    <g id="ytick_12">
     <g id="line2d_48">
      <g>
       <use xlink:href="#m658ad28e29" x="51.378125" y="363.818157" style="stroke: #000000; stroke-width: 0.6"/>
      </g>
     </g>
    </g>
    <g id="ytick_13">
     <g id="line2d_49">
      <g>
       <use xlink:href="#m658ad28e29" x="51.378125" y="361.305934" style="stroke: #000000; stroke-width: 0.6"/>
      </g>
     </g>
    </g>
    <g id="ytick_14">
     <g id="line2d_50">
      <g>
       <use xlink:href="#m658ad28e29" x="51.378125" y="359.357303" style="stroke: #000000; stroke-width: 0.6"/>
      </g>
     </g>
    </g>
    <g id="ytick_15">
     <g id="line2d_51">
      <g>
       <use xlink:href="#m658ad28e29" x="51.378125" y="357.765156" style="stroke: #000000; stroke-width: 0.6"/>
      </g>
     </g>
    </g>
    <g id="ytick_16">
     <g id="line2d_52">
      <g>
       <use xlink:href="#m658ad28e29" x="51.378125" y="356.419014" style="stroke: #000000; stroke-width: 0.6"/>
      </g>
     </g>
    </g>
    <g id="ytick_17">
     <g id="line2d_53">
      <g>
       <use xlink:href="#m658ad28e29" x="51.378125" y="355.252933" style="stroke: #000000; stroke-width: 0.6"/>
      </g>
     </g>
    </g>
    <g id="ytick_18">
     <g id="line2d_54">
      <g>
       <use xlink:href="#m658ad28e29" x="51.378125" y="354.224377" style="stroke: #000000; stroke-width: 0.6"/>
      </g>
     </g>
    </g>
    <g id="ytick_19">
     <g id="line2d_55">
      <g>
       <use xlink:href="#m658ad28e29" x="51.378125" y="347.2513" style="stroke: #000000; stroke-width: 0.6"/>
      </g>
     </g>
    </g>
    <g id="ytick_20">
     <g id="line2d_56">
      <g>
       <use xlink:href="#m658ad28e29" x="51.378125" y="343.710521" style="stroke: #000000; stroke-width: 0.6"/>
      </g>
     </g>
    </g>
    <g id="ytick_21">
     <g id="line2d_57">
      <g>
       <use xlink:href="#m658ad28e29" x="51.378125" y="341.198299" style="stroke: #000000; stroke-width: 0.6"/>
      </g>
     </g>
    </g>
    <g id="ytick_22">
     <g id="line2d_58">
      <g>
       <use xlink:href="#m658ad28e29" x="51.378125" y="339.249667" style="stroke: #000000; stroke-width: 0.6"/>
      </g>
     </g>
    </g>
    <g id="ytick_23">
     <g id="line2d_59">
      <g>
       <use xlink:href="#m658ad28e29" x="51.378125" y="337.65752" style="stroke: #000000; stroke-width: 0.6"/>
      </g>
     </g>
    </g>
    <g id="ytick_24">
     <g id="line2d_60">
      <g>
       <use xlink:href="#m658ad28e29" x="51.378125" y="336.311378" style="stroke: #000000; stroke-width: 0.6"/>
      </g>
     </g>
    </g>
    <g id="ytick_25">
     <g id="line2d_61">
      <g>
       <use xlink:href="#m658ad28e29" x="51.378125" y="335.145297" style="stroke: #000000; stroke-width: 0.6"/>
      </g>
     </g>
    </g>
    <g id="ytick_26">
     <g id="line2d_62">
      <g>
       <use xlink:href="#m658ad28e29" x="51.378125" y="334.116741" style="stroke: #000000; stroke-width: 0.6"/>
      </g>
     </g>
    </g>
    <g id="ytick_27">
     <g id="line2d_63">
      <g>
       <use xlink:href="#m658ad28e29" x="51.378125" y="327.143664" style="stroke: #000000; stroke-width: 0.6"/>
      </g>
     </g>
    </g>
    <g id="ytick_28">
     <g id="line2d_64">
      <g>
       <use xlink:href="#m658ad28e29" x="51.378125" y="323.602885" style="stroke: #000000; stroke-width: 0.6"/>
      </g>
     </g>
    </g>
    <g id="ytick_29">
     <g id="line2d_65">
      <g>
       <use xlink:href="#m658ad28e29" x="51.378125" y="321.090663" style="stroke: #000000; stroke-width: 0.6"/>
      </g>
     </g>
    </g>
    <g id="ytick_30">
     <g id="line2d_66">
      <g>
       <use xlink:href="#m658ad28e29" x="51.378125" y="319.142031" style="stroke: #000000; stroke-width: 0.6"/>
      </g>
     </g>
    </g>
    <g id="ytick_31">
     <g id="line2d_67">
      <g>
       <use xlink:href="#m658ad28e29" x="51.378125" y="317.549884" style="stroke: #000000; stroke-width: 0.6"/>
      </g>
     </g>
    </g>
    <g id="ytick_32">
     <g id="line2d_68">
      <g>
       <use xlink:href="#m658ad28e29" x="51.378125" y="316.203742" style="stroke: #000000; stroke-width: 0.6"/>
      </g>
     </g>
    </g>
    <g id="ytick_33">
     <g id="line2d_69">
      <g>
       <use xlink:href="#m658ad28e29" x="51.378125" y="315.037661" style="stroke: #000000; stroke-width: 0.6"/>
      </g>
     </g>
    </g>
    <g id="ytick_34">
     <g id="line2d_70">
      <g>
       <use xlink:href="#m658ad28e29" x="51.378125" y="314.009105" style="stroke: #000000; stroke-width: 0.6"/>
      </g>
     </g>
    </g>
    <g id="ytick_35">
     <g id="line2d_71">
      <g>
       <use xlink:href="#m658ad28e29" x="51.378125" y="307.036028" style="stroke: #000000; stroke-width: 0.6"/>
      </g>
     </g>
    </g>
    <g id="ytick_36">
     <g id="line2d_72">
      <g>
       <use xlink:href="#m658ad28e29" x="51.378125" y="303.495249" style="stroke: #000000; stroke-width: 0.6"/>
      </g>
     </g>
    </g>
    <g id="ytick_37">
     <g id="line2d_73">
      <g>
       <use xlink:href="#m658ad28e29" x="51.378125" y="300.983027" style="stroke: #000000; stroke-width: 0.6"/>
      </g>
     </g>
    </g>
    <g id="ytick_38">
     <g id="line2d_74">
      <g>
       <use xlink:href="#m658ad28e29" x="51.378125" y="299.034396" style="stroke: #000000; stroke-width: 0.6"/>
      </g>
     </g>
    </g>
    <g id="ytick_39">
     <g id="line2d_75">
      <g>
       <use xlink:href="#m658ad28e29" x="51.378125" y="297.442248" style="stroke: #000000; stroke-width: 0.6"/>
      </g>
     </g>
    </g>
    <g id="ytick_40">
     <g id="line2d_76">
      <g>
       <use xlink:href="#m658ad28e29" x="51.378125" y="296.096106" style="stroke: #000000; stroke-width: 0.6"/>
      </g>
     </g>
    </g>
    <g id="ytick_41">
     <g id="line2d_77">
      <g>
       <use xlink:href="#m658ad28e29" x="51.378125" y="294.930025" style="stroke: #000000; stroke-width: 0.6"/>
      </g>
     </g>
    </g>
    <g id="ytick_42">
     <g id="line2d_78">
      <g>
       <use xlink:href="#m658ad28e29" x="51.378125" y="293.901469" style="stroke: #000000; stroke-width: 0.6"/>
      </g>
     </g>
    </g>
    <g id="text_23">
     <!-- Relative Error -->
     <g transform="translate(14.798438 365.364558) rotate(-90) scale(0.1 -0.1)">
      <defs>
       <path id="DejaVuSans-76" d="M 191 3500 
L 800 3500 
L 1894 563 
L 2988 3500 
L 3597 3500 
L 2284 0 
L 1503 0 
L 191 3500 
z
" transform="scale(0.015625)"/>
       <path id="DejaVuSans-45" d="M 628 4666 
L 3578 4666 
L 3578 4134 
L 1259 4134 
L 1259 2753 
L 3481 2753 
L 3481 2222 
L 1259 2222 
L 1259 531 
L 3634 531 
L 3634 0 
L 628 0 
L 628 4666 
z
" transform="scale(0.015625)"/>
      </defs>
      <use xlink:href="#DejaVuSans-52"/>
      <use xlink:href="#DejaVuSans-65" transform="translate(64.982422 0)"/>
      <use xlink:href="#DejaVuSans-6c" transform="translate(126.505859 0)"/>
      <use xlink:href="#DejaVuSans-61" transform="translate(154.289062 0)"/>
      <use xlink:href="#DejaVuSans-74" transform="translate(215.568359 0)"/>
      <use xlink:href="#DejaVuSans-69" transform="translate(254.777344 0)"/>
      <use xlink:href="#DejaVuSans-76" transform="translate(282.560547 0)"/>
      <use xlink:href="#DejaVuSans-65" transform="translate(341.740234 0)"/>
      <use xlink:href="#DejaVuSans-20" transform="translate(403.263672 0)"/>
      <use xlink:href="#DejaVuSans-45" transform="translate(435.050781 0)"/>
      <use xlink:href="#DejaVuSans-72" transform="translate(498.234375 0)"/>
      <use xlink:href="#DejaVuSans-72" transform="translate(537.597656 0)"/>
      <use xlink:href="#DejaVuSans-6f" transform="translate(576.460938 0)"/>
      <use xlink:href="#DejaVuSans-72" transform="translate(637.642578 0)"/>
     </g>
    </g>
   </g>
   <g id="patch_9">
    <path d="M 51.378125 373.411937 
L 51.378125 289.440615 
" style="fill: none; stroke: #000000; stroke-width: 0.8; stroke-linejoin: miter; stroke-linecap: square"/>
   </g>
   <g id="patch_10">
    <path d="M 560.581071 373.411937 
L 560.581071 289.440615 
" style="fill: none; stroke: #000000; stroke-width: 0.8; stroke-linejoin: miter; stroke-linecap: square"/>
   </g>
   <g id="patch_11">
    <path d="M 51.378125 373.411937 
L 560.581071 373.411937 
" style="fill: none; stroke: #000000; stroke-width: 0.8; stroke-linejoin: miter; stroke-linecap: square"/>
   </g>
   <g id="patch_12">
    <path d="M 51.378125 289.440615 
L 560.581071 289.440615 
" style="fill: none; stroke: #000000; stroke-width: 0.8; stroke-linejoin: miter; stroke-linecap: square"/>
   </g>
   <g id="PathCollection_3">
    <g clip-path="url(#p47aac89e17)">
     <use xlink:href="#ma01988ec14" x="96.567131" y="292.981394" style="fill: #ff0000; stroke: #ff0000"/>
     <use xlink:href="#ma01988ec14" x="103.914937" y="296.791584" style="fill: #ff0000; stroke: #ff0000"/>
     <use xlink:href="#ma01988ec14" x="111.262743" y="303.940736" style="fill: #ff0000; stroke: #ff0000"/>
     <use xlink:href="#ma01988ec14" x="118.610549" y="312.093517" style="fill: #ff0000; stroke: #ff0000"/>
     <use xlink:href="#ma01988ec14" x="125.958354" y="324.919097" style="fill: #ff0000; stroke: #ff0000"/>
     <use xlink:href="#ma01988ec14" x="133.30616" y="314.052881" style="fill: #ff0000; stroke: #ff0000"/>
     <use xlink:href="#ma01988ec14" x="140.653966" y="321.991478" style="fill: #ff0000; stroke: #ff0000"/>
     <use xlink:href="#ma01988ec14" x="148.001772" y="338.428196" style="fill: #ff0000; stroke: #ff0000"/>
     <use xlink:href="#ma01988ec14" x="155.349578" y="347.280457" style="fill: #ff0000; stroke: #ff0000"/>
     <use xlink:href="#ma01988ec14" x="162.697384" y="358.376733" style="fill: #ff0000; stroke: #ff0000"/>
     <use xlink:href="#ma01988ec14" x="170.04519" y="344.555425" style="fill: #ff0000; stroke: #ff0000"/>
     <use xlink:href="#ma01988ec14" x="177.392995" y="345.75479" style="fill: #ff0000; stroke: #ff0000"/>
     <use xlink:href="#ma01988ec14" x="184.740801" y="358.13372" style="fill: #ff0000; stroke: #ff0000"/>
     <use xlink:href="#ma01988ec14" x="192.088607" y="359.471699" style="fill: #ff0000; stroke: #ff0000"/>
     <use xlink:href="#ma01988ec14" x="199.436413" y="352.504128" style="fill: #ff0000; stroke: #ff0000"/>
     <use xlink:href="#ma01988ec14" x="206.784219" y="351.251973" style="fill: #ff0000; stroke: #ff0000"/>
     <use xlink:href="#ma01988ec14" x="214.132025" y="350.358416" style="fill: #ff0000; stroke: #ff0000"/>
     <use xlink:href="#ma01988ec14" x="221.479831" y="348.984239" style="fill: #ff0000; stroke: #ff0000"/>
     <use xlink:href="#ma01988ec14" x="228.827637" y="351.529112" style="fill: #ff0000; stroke: #ff0000"/>
     <use xlink:href="#ma01988ec14" x="236.175442" y="351.376117" style="fill: #ff0000; stroke: #ff0000"/>
     <use xlink:href="#ma01988ec14" x="243.523248" y="352.092603" style="fill: #ff0000; stroke: #ff0000"/>
     <use xlink:href="#ma01988ec14" x="250.871054" y="351.191685" style="fill: #ff0000; stroke: #ff0000"/>
     <use xlink:href="#ma01988ec14" x="258.21886" y="351.200134" style="fill: #ff0000; stroke: #ff0000"/>
     <use xlink:href="#ma01988ec14" x="265.566666" y="351.287129" style="fill: #ff0000; stroke: #ff0000"/>
     <use xlink:href="#ma01988ec14" x="272.914472" y="350.995432" style="fill: #ff0000; stroke: #ff0000"/>
     <use xlink:href="#ma01988ec14" x="280.262278" y="351.108073" style="fill: #ff0000; stroke: #ff0000"/>
     <use xlink:href="#ma01988ec14" x="287.610083" y="351.084367" style="fill: #ff0000; stroke: #ff0000"/>
     <use xlink:href="#ma01988ec14" x="294.957889" y="351.295377" style="fill: #ff0000; stroke: #ff0000"/>
     <use xlink:href="#ma01988ec14" x="302.305695" y="348.900684" style="fill: #ff0000; stroke: #ff0000"/>
     <use xlink:href="#ma01988ec14" x="309.653501" y="350.895867" style="fill: #ff0000; stroke: #ff0000"/>
     <use xlink:href="#ma01988ec14" x="317.001307" y="349.157875" style="fill: #ff0000; stroke: #ff0000"/>
     <use xlink:href="#ma01988ec14" x="324.349113" y="351.359825" style="fill: #ff0000; stroke: #ff0000"/>
     <use xlink:href="#ma01988ec14" x="331.696919" y="350.324287" style="fill: #ff0000; stroke: #ff0000"/>
     <use xlink:href="#ma01988ec14" x="339.044724" y="351.266201" style="fill: #ff0000; stroke: #ff0000"/>
     <use xlink:href="#ma01988ec14" x="346.39253" y="351.245306" style="fill: #ff0000; stroke: #ff0000"/>
     <use xlink:href="#ma01988ec14" x="353.740336" y="351.165474" style="fill: #ff0000; stroke: #ff0000"/>
     <use xlink:href="#ma01988ec14" x="361.088142" y="350.859759" style="fill: #ff0000; stroke: #ff0000"/>
     <use xlink:href="#ma01988ec14" x="368.435948" y="351.233246" style="fill: #ff0000; stroke: #ff0000"/>
     <use xlink:href="#ma01988ec14" x="375.783754" y="351.204792" style="fill: #ff0000; stroke: #ff0000"/>
     <use xlink:href="#ma01988ec14" x="383.13156" y="352.50305" style="fill: #ff0000; stroke: #ff0000"/>
     <use xlink:href="#ma01988ec14" x="390.479365" y="351.315314" style="fill: #ff0000; stroke: #ff0000"/>
     <use xlink:href="#ma01988ec14" x="397.827171" y="351.14375" style="fill: #ff0000; stroke: #ff0000"/>
     <use xlink:href="#ma01988ec14" x="405.174977" y="351.247846" style="fill: #ff0000; stroke: #ff0000"/>
     <use xlink:href="#ma01988ec14" x="412.522783" y="350.99031" style="fill: #ff0000; stroke: #ff0000"/>
     <use xlink:href="#ma01988ec14" x="419.870589" y="350.771429" style="fill: #ff0000; stroke: #ff0000"/>
     <use xlink:href="#ma01988ec14" x="427.218395" y="350.4616" style="fill: #ff0000; stroke: #ff0000"/>
     <use xlink:href="#ma01988ec14" x="434.566201" y="350.279846" style="fill: #ff0000; stroke: #ff0000"/>
     <use xlink:href="#ma01988ec14" x="441.914006" y="350.854725" style="fill: #ff0000; stroke: #ff0000"/>
     <use xlink:href="#ma01988ec14" x="449.261812" y="353.855392" style="fill: #ff0000; stroke: #ff0000"/>
     <use xlink:href="#ma01988ec14" x="456.609618" y="359.557841" style="fill: #ff0000; stroke: #ff0000"/>
     <use xlink:href="#ma01988ec14" x="463.957424" y="361.366777" style="fill: #ff0000; stroke: #ff0000"/>
     <use xlink:href="#ma01988ec14" x="471.30523" y="364.1042" style="fill: #ff0000; stroke: #ff0000"/>
     <use xlink:href="#ma01988ec14" x="478.653036" y="354.61083" style="fill: #ff0000; stroke: #ff0000"/>
     <use xlink:href="#ma01988ec14" x="486.000842" y="340.186155" style="fill: #ff0000; stroke: #ff0000"/>
     <use xlink:href="#ma01988ec14" x="493.348647" y="328.880679" style="fill: #ff0000; stroke: #ff0000"/>
     <use xlink:href="#ma01988ec14" x="500.696453" y="315.024447" style="fill: #ff0000; stroke: #ff0000"/>
     <use xlink:href="#ma01988ec14" x="508.044259" y="303.388001" style="fill: #ff0000; stroke: #ff0000"/>
     <use xlink:href="#ma01988ec14" x="515.392065" y="307.159455" style="fill: #ff0000; stroke: #ff0000"/>
     <use xlink:href="#ma01988ec14" x="522.739871" y="292.981394" style="fill: #ff0000; stroke: #ff0000"/>
    </g>
   </g>
  </g>
 </g>
 <defs>
  <clipPath id="pe9ea8c2b6e">
   <rect x="51.378125" y="20.798437" width="509.202946" height="251.913967"/>
  </clipPath>
  <clipPath id="p47aac89e17">
   <rect x="51.378125" y="289.440615" width="509.202946" height="83.971322"/>
  </clipPath>
 </defs>
</svg>
