<?xml version="1.0" encoding="utf-8" standalone="no"?>
<!DOCTYPE svg PUBLIC "-//W3C//DTD SVG 1.1//EN"
  "http://www.w3.org/Graphics/SVG/1.1/DTD/svg11.dtd">
<svg xmlns:xlink="http://www.w3.org/1999/xlink" width="584.39952pt" height="296.39952pt" viewBox="0 0 584.39952 296.39952" xmlns="http://www.w3.org/2000/svg" version="1.1">
 <metadata>
  <rdf:RDF xmlns:dc="http://purl.org/dc/elements/1.1/" xmlns:cc="http://creativecommons.org/ns#" xmlns:rdf="http://www.w3.org/1999/02/22-rdf-syntax-ns#">
   <cc:Work>
    <dc:type rdf:resource="http://purl.org/dc/dcmitype/StillImage"/>
    <dc:date>2026-05-15T04:20:58.822000</dc:date>
    <dc:format>image/svg+xml</dc:format>
    <dc:creator>
     <cc:Agent>
      <dc:title>Matplotlib v3.10.8, https://matplotlib.org/</dc:title>
     </cc:Agent>
    </dc:creator>
   </cc:Work>
  </rdf:RDF>
 </metadata>
 <defs>
  <style type="text/css">*{stroke-linejoin: round; stroke-linecap: butt}</style>
 </defs>
 <g id="figure_1">
  <g id="patch_1">
   <path d="M 0 296.39952 
L 584.39952 296.39952 
L 584.39952 0 
L 0 0 
z
" style="fill: #ffffff"/>
  </g>
  <g id="axes_1">
   <g id="patch_2">
    <path d="M 51.378125 258.84327 
L 577.19952 258.84327 
L 577.19952 10.999219 
L 51.378125 10.999219 
z
" style="fill: #ffffff"/>
   </g>
   <g id="matplotlib.axis_1">
    <g id="xtick_1">
     <g id="line2d_1">
      <path d="M 132.36672 258.84327 
L 132.36672 10.999219 
" clip-path="url(#p04c9497339)" style="fill: none; stroke: #b0b0b0; stroke-opacity: 0.3; stroke-width: 0.8; stroke-linecap: square"/>
     </g>
     <g id="line2d_2">
      <defs>
       <path id="mc4919d3abb" d="M 0 0 
L 0 3.5 
" style="stroke: #000000; stroke-width: 0.8"/>
      </defs>
      <g>
       <use xlink:href="#mc4919d3abb" x="132.36672" y="258.84327" style="stroke: #000000; stroke-width: 0.8"/>
      </g>
     </g>
     <g id="text_1">
      <!-- $\mathdefault{10^{2}}$ -->
      <g transform="translate(123.56672 273.441707) scale(0.1 -0.1)">
       <defs>
        <path id="DejaVuSans-31" d="M 794 531 
L 1825 531 
L 1825 4091 
L 703 3866 
L 703 4441 
L 1819 4666 
L 2450 4666 
L 2450 531 
L 3481 531 
L 3481 0 
L 794 0 
L 794 531 
z
" transform="scale(0.015625)"/>
        <path id="DejaVuSans-30" d="M 2034 4250 
Q 1547 4250 1301 3770 
Q 1056 3291 1056 2328 
Q 1056 1369 1301 889 
Q 1547 409 2034 409 
Q 2525 409 2770 889 
Q 3016 1369 3016 2328 
Q 3016 3291 2770 3770 
Q 2525 4250 2034 4250 
z
M 2034 4750 
Q 2819 4750 3233 4129 
Q 3647 3509 3647 2328 
Q 3647 1150 3233 529 
Q 2819 -91 2034 -91 
Q 1250 -91 836 529 
Q 422 1150 422 2328 
Q 422 3509 836 4129 
Q 1250 4750 2034 4750 
z
" transform="scale(0.015625)"/>
        <path id="DejaVuSans-32" d="M 1228 531 
L 3431 531 
L 3431 0 
L 469 0 
L 469 531 
Q 828 903 1448 1529 
Q 2069 2156 2228 2338 
Q 2531 2678 2651 2914 
Q 2772 3150 2772 3378 
Q 2772 3750 2511 3984 
Q 2250 4219 1831 4219 
Q 1534 4219 1204 4116 
Q 875 4013 500 3803 
L 500 4441 
Q 881 4594 1212 4672 
Q 1544 4750 1819 4750 
Q 2544 4750 2975 4387 
Q 3406 4025 3406 3419 
Q 3406 3131 3298 2873 
Q 3191 2616 2906 2266 
Q 2828 2175 2409 1742 
Q 1991 1309 1228 531 
z
" transform="scale(0.015625)"/>
       </defs>
       <use xlink:href="#DejaVuSans-31" transform="translate(0 0.765625)"/>
       <use xlink:href="#DejaVuSans-30" transform="translate(63.623047 0.765625)"/>
       <use xlink:href="#DejaVuSans-32" transform="translate(128.203125 39.046875) scale(0.7)"/>
      </g>
     </g>
    </g>
    <g id="xtick_2">
     <g id="line2d_3">
      <path d="M 340.573649 258.84327 
L 340.573649 10.999219 
" clip-path="url(#p04c9497339)" style="fill: none; stroke: #b0b0b0; stroke-opacity: 0.3; stroke-width: 0.8; stroke-linecap: square"/>
     </g>
     <g id="line2d_4">
      <g>
       <use xlink:href="#mc4919d3abb" x="340.573649" y="258.84327" style="stroke: #000000; stroke-width: 0.8"/>
      </g>
     </g>
     <g id="text_2">
      <!-- $\mathdefault{10^{3}}$ -->
      <g transform="translate(331.773649 273.441707) scale(0.1 -0.1)">
       <defs>
        <path id="DejaVuSans-33" d="M 2597 2516 
Q 3050 2419 3304 2112 
Q 3559 1806 3559 1356 
Q 3559 666 3084 287 
Q 2609 -91 1734 -91 
Q 1441 -91 1130 -33 
Q 819 25 488 141 
L 488 750 
Q 750 597 1062 519 
Q 1375 441 1716 441 
Q 2309 441 2620 675 
Q 2931 909 2931 1356 
Q 2931 1769 2642 2001 
Q 2353 2234 1838 2234 
L 1294 2234 
L 1294 2753 
L 1863 2753 
Q 2328 2753 2575 2939 
Q 2822 3125 2822 3475 
Q 2822 3834 2567 4026 
Q 2313 4219 1838 4219 
Q 1578 4219 1281 4162 
Q 984 4106 628 3988 
L 628 4550 
Q 988 4650 1302 4700 
Q 1616 4750 1894 4750 
Q 2613 4750 3031 4423 
Q 3450 4097 3450 3541 
Q 3450 3153 3228 2886 
Q 3006 2619 2597 2516 
z
" transform="scale(0.015625)"/>
       </defs>
       <use xlink:href="#DejaVuSans-31" transform="translate(0 0.765625)"/>
       <use xlink:href="#DejaVuSans-30" transform="translate(63.623047 0.765625)"/>
       <use xlink:href="#DejaVuSans-33" transform="translate(128.203125 39.046875) scale(0.7)"/>
      </g>
     </g>
    </g>
    <g id="xtick_3">
     <g id="line2d_5">
      <path d="M 548.780579 258.84327 
L 548.780579 10.999219 
" clip-path="url(#p04c9497339)" style="fill: none; stroke: #b0b0b0; stroke-opacity: 0.3; stroke-width: 0.8; stroke-linecap: square"/>
     </g>
     <g id="line2d_6">
      <g>
       <use xlink:href="#mc4919d3abb" x="548.780579" y="258.84327" style="stroke: #000000; stroke-width: 0.8"/>
      </g>
     </g>
     <g id="text_3">
      <!-- $\mathdefault{10^{4}}$ -->
      <g transform="translate(539.980579 273.441707) scale(0.1 -0.1)">
       <defs>
        <path id="DejaVuSans-34" d="M 2419 4116 
L 825 1625 
L 2419 1625 
L 2419 4116 
z
M 2253 4666 
L 3047 4666 
L 3047 1625 
L 3713 1625 
L 3713 1100 
L 3047 1100 
L 3047 0 
L 2419 0 
L 2419 1100 
L 313 1100 
L 313 1709 
L 2253 4666 
z
" transform="scale(0.015625)"/>
       </defs>
       <use xlink:href="#DejaVuSans-31" transform="translate(0 0.684375)"/>
       <use xlink:href="#DejaVuSans-30" transform="translate(63.623047 0.684375)"/>
       <use xlink:href="#DejaVuSans-34" transform="translate(128.203125 38.965625) scale(0.7)"/>
      </g>
     </g>
    </g>
    <g id="xtick_4">
     <g id="line2d_7">
      <defs>
       <path id="mda9247439d" d="M 0 0 
L 0 2 
" style="stroke: #000000; stroke-width: 0.6"/>
      </defs>
      <g>
       <use xlink:href="#mda9247439d" x="69.690189" y="258.84327" style="stroke: #000000; stroke-width: 0.6"/>
      </g>
     </g>
    </g>
    <g id="xtick_5">
     <g id="line2d_8">
      <g>
       <use xlink:href="#mda9247439d" x="86.176273" y="258.84327" style="stroke: #000000; stroke-width: 0.6"/>
      </g>
     </g>
    </g>
    <g id="xtick_6">
     <g id="line2d_9">
      <g>
       <use xlink:href="#mda9247439d" x="100.115059" y="258.84327" style="stroke: #000000; stroke-width: 0.6"/>
      </g>
     </g>
    </g>
    <g id="xtick_7">
     <g id="line2d_10">
      <g>
       <use xlink:href="#mda9247439d" x="112.189384" y="258.84327" style="stroke: #000000; stroke-width: 0.6"/>
      </g>
     </g>
    </g>
    <g id="xtick_8">
     <g id="line2d_11">
      <g>
       <use xlink:href="#mda9247439d" x="122.839693" y="258.84327" style="stroke: #000000; stroke-width: 0.6"/>
      </g>
     </g>
    </g>
    <g id="xtick_9">
     <g id="line2d_12">
      <g>
       <use xlink:href="#mda9247439d" x="195.043251" y="258.84327" style="stroke: #000000; stroke-width: 0.6"/>
      </g>
     </g>
    </g>
    <g id="xtick_10">
     <g id="line2d_13">
      <g>
       <use xlink:href="#mda9247439d" x="231.706671" y="258.84327" style="stroke: #000000; stroke-width: 0.6"/>
      </g>
     </g>
    </g>
    <g id="xtick_11">
     <g id="line2d_14">
      <g>
       <use xlink:href="#mda9247439d" x="257.719782" y="258.84327" style="stroke: #000000; stroke-width: 0.6"/>
      </g>
     </g>
    </g>
    <g id="xtick_12">
     <g id="line2d_15">
      <g>
       <use xlink:href="#mda9247439d" x="277.897118" y="258.84327" style="stroke: #000000; stroke-width: 0.6"/>
      </g>
     </g>
    </g>
    <g id="xtick_13">
     <g id="line2d_16">
      <g>
       <use xlink:href="#mda9247439d" x="294.383202" y="258.84327" style="stroke: #000000; stroke-width: 0.6"/>
      </g>
     </g>
    </g>
    <g id="xtick_14">
     <g id="line2d_17">
      <g>
       <use xlink:href="#mda9247439d" x="308.321988" y="258.84327" style="stroke: #000000; stroke-width: 0.6"/>
      </g>
     </g>
    </g>
    <g id="xtick_15">
     <g id="line2d_18">
      <g>
       <use xlink:href="#mda9247439d" x="320.396313" y="258.84327" style="stroke: #000000; stroke-width: 0.6"/>
      </g>
     </g>
    </g>
    <g id="xtick_16">
     <g id="line2d_19">
      <g>
       <use xlink:href="#mda9247439d" x="331.046623" y="258.84327" style="stroke: #000000; stroke-width: 0.6"/>
      </g>
     </g>
    </g>
    <g id="xtick_17">
     <g id="line2d_20">
      <g>
       <use xlink:href="#mda9247439d" x="403.25018" y="258.84327" style="stroke: #000000; stroke-width: 0.6"/>
      </g>
     </g>
    </g>
    <g id="xtick_18">
     <g id="line2d_21">
      <g>
       <use xlink:href="#mda9247439d" x="439.913601" y="258.84327" style="stroke: #000000; stroke-width: 0.6"/>
      </g>
     </g>
    </g>
    <g id="xtick_19">
     <g id="line2d_22">
      <g>
       <use xlink:href="#mda9247439d" x="465.926711" y="258.84327" style="stroke: #000000; stroke-width: 0.6"/>
      </g>
     </g>
    </g>
    <g id="xtick_20">
     <g id="line2d_23">
      <g>
       <use xlink:href="#mda9247439d" x="486.104048" y="258.84327" style="stroke: #000000; stroke-width: 0.6"/>
      </g>
     </g>
    </g>
    <g id="xtick_21">
     <g id="line2d_24">
      <g>
       <use xlink:href="#mda9247439d" x="502.590132" y="258.84327" style="stroke: #000000; stroke-width: 0.6"/>
      </g>
     </g>
    </g>
    <g id="xtick_22">
     <g id="line2d_25">
      <g>
       <use xlink:href="#mda9247439d" x="516.528917" y="258.84327" style="stroke: #000000; stroke-width: 0.6"/>
      </g>
     </g>
    </g>
    <g id="xtick_23">
     <g id="line2d_26">
      <g>
       <use xlink:href="#mda9247439d" x="528.603242" y="258.84327" style="stroke: #000000; stroke-width: 0.6"/>
      </g>
     </g>
    </g>
    <g id="xtick_24">
     <g id="line2d_27">
      <g>
       <use xlink:href="#mda9247439d" x="539.253552" y="258.84327" style="stroke: #000000; stroke-width: 0.6"/>
      </g>
     </g>
    </g>
    <g id="text_4">
     <!-- ESA voltage [V] -->
     <g transform="translate(275.258354 287.119832) scale(0.1 -0.1)">
      <defs>
       <path id="DejaVuSans-45" d="M 628 4666 
L 3578 4666 
L 3578 4134 
L 1259 4134 
L 1259 2753 
L 3481 2753 
L 3481 2222 
L 1259 2222 
L 1259 531 
L 3634 531 
L 3634 0 
L 628 0 
L 628 4666 
z
" transform="scale(0.015625)"/>
       <path id="DejaVuSans-53" d="M 3425 4513 
L 3425 3897 
Q 3066 4069 2747 4153 
Q 2428 4238 2131 4238 
Q 1616 4238 1336 4038 
Q 1056 3838 1056 3469 
Q 1056 3159 1242 3001 
Q 1428 2844 1947 2747 
L 2328 2669 
Q 3034 2534 3370 2195 
Q 3706 1856 3706 1288 
Q 3706 609 3251 259 
Q 2797 -91 1919 -91 
Q 1588 -91 1214 -16 
Q 841 59 441 206 
L 441 856 
Q 825 641 1194 531 
Q 1563 422 1919 422 
Q 2459 422 2753 634 
Q 3047 847 3047 1241 
Q 3047 1584 2836 1778 
Q 2625 1972 2144 2069 
L 1759 2144 
Q 1053 2284 737 2584 
Q 422 2884 422 3419 
Q 422 4038 858 4394 
Q 1294 4750 2059 4750 
Q 2388 4750 2728 4690 
Q 3069 4631 3425 4513 
z
" transform="scale(0.015625)"/>
       <path id="DejaVuSans-41" d="M 2188 4044 
L 1331 1722 
L 3047 1722 
L 2188 4044 
z
M 1831 4666 
L 2547 4666 
L 4325 0 
L 3669 0 
L 3244 1197 
L 1141 1197 
L 716 0 
L 50 0 
L 1831 4666 
z
" transform="scale(0.015625)"/>
       <path id="DejaVuSans-20" transform="scale(0.015625)"/>
       <path id="DejaVuSans-76" d="M 191 3500 
L 800 3500 
L 1894 563 
L 2988 3500 
L 3597 3500 
L 2284 0 
L 1503 0 
L 191 3500 
z
" transform="scale(0.015625)"/>
       <path id="DejaVuSans-6f" d="M 1959 3097 
Q 1497 3097 1228 2736 
Q 959 2375 959 1747 
Q 959 1119 1226 758 
Q 1494 397 1959 397 
Q 2419 397 2687 759 
Q 2956 1122 2956 1747 
Q 2956 2369 2687 2733 
Q 2419 3097 1959 3097 
z
M 1959 3584 
Q 2709 3584 3137 3096 
Q 3566 2609 3566 1747 
Q 3566 888 3137 398 
Q 2709 -91 1959 -91 
Q 1206 -91 779 398 
Q 353 888 353 1747 
Q 353 2609 779 3096 
Q 1206 3584 1959 3584 
z
" transform="scale(0.015625)"/>
       <path id="DejaVuSans-6c" d="M 603 4863 
L 1178 4863 
L 1178 0 
L 603 0 
L 603 4863 
z
" transform="scale(0.015625)"/>
       <path id="DejaVuSans-74" d="M 1172 4494 
L 1172 3500 
L 2356 3500 
L 2356 3053 
L 1172 3053 
L 1172 1153 
Q 1172 725 1289 603 
Q 1406 481 1766 481 
L 2356 481 
L 2356 0 
L 1766 0 
Q 1100 0 847 248 
Q 594 497 594 1153 
L 594 3053 
L 172 3053 
L 172 3500 
L 594 3500 
L 594 4494 
L 1172 4494 
z
" transform="scale(0.015625)"/>
       <path id="DejaVuSans-61" d="M 2194 1759 
Q 1497 1759 1228 1600 
Q 959 1441 959 1056 
Q 959 750 1161 570 
Q 1363 391 1709 391 
Q 2188 391 2477 730 
Q 2766 1069 2766 1631 
L 2766 1759 
L 2194 1759 
z
M 3341 1997 
L 3341 0 
L 2766 0 
L 2766 531 
Q 2569 213 2275 61 
Q 1981 -91 1556 -91 
Q 1019 -91 701 211 
Q 384 513 384 1019 
Q 384 1609 779 1909 
Q 1175 2209 1959 2209 
L 2766 2209 
L 2766 2266 
Q 2766 2663 2505 2880 
Q 2244 3097 1772 3097 
Q 1472 3097 1187 3025 
Q 903 2953 641 2809 
L 641 3341 
Q 956 3463 1253 3523 
Q 1550 3584 1831 3584 
Q 2591 3584 2966 3190 
Q 3341 2797 3341 1997 
z
" transform="scale(0.015625)"/>
       <path id="DejaVuSans-67" d="M 2906 1791 
Q 2906 2416 2648 2759 
Q 2391 3103 1925 3103 
Q 1463 3103 1205 2759 
Q 947 2416 947 1791 
Q 947 1169 1205 825 
Q 1463 481 1925 481 
Q 2391 481 2648 825 
Q 2906 1169 2906 1791 
z
M 3481 434 
Q 3481 -459 3084 -895 
Q 2688 -1331 1869 -1331 
Q 1566 -1331 1297 -1286 
Q 1028 -1241 775 -1147 
L 775 -588 
Q 1028 -725 1275 -790 
Q 1522 -856 1778 -856 
Q 2344 -856 2625 -561 
Q 2906 -266 2906 331 
L 2906 616 
Q 2728 306 2450 153 
Q 2172 0 1784 0 
Q 1141 0 747 490 
Q 353 981 353 1791 
Q 353 2603 747 3093 
Q 1141 3584 1784 3584 
Q 2172 3584 2450 3431 
Q 2728 3278 2906 2969 
L 2906 3500 
L 3481 3500 
L 3481 434 
z
" transform="scale(0.015625)"/>
       <path id="DejaVuSans-65" d="M 3597 1894 
L 3597 1613 
L 953 1613 
Q 991 1019 1311 708 
Q 1631 397 2203 397 
Q 2534 397 2845 478 
Q 3156 559 3463 722 
L 3463 178 
Q 3153 47 2828 -22 
Q 2503 -91 2169 -91 
Q 1331 -91 842 396 
Q 353 884 353 1716 
Q 353 2575 817 3079 
Q 1281 3584 2069 3584 
Q 2775 3584 3186 3129 
Q 3597 2675 3597 1894 
z
M 3022 2063 
Q 3016 2534 2758 2815 
Q 2500 3097 2075 3097 
Q 1594 3097 1305 2825 
Q 1016 2553 972 2059 
L 3022 2063 
z
" transform="scale(0.015625)"/>
       <path id="DejaVuSans-5b" d="M 550 4863 
L 1875 4863 
L 1875 4416 
L 1125 4416 
L 1125 -397 
L 1875 -397 
L 1875 -844 
L 550 -844 
L 550 4863 
z
" transform="scale(0.015625)"/>
       <path id="DejaVuSans-56" d="M 1831 0 
L 50 4666 
L 709 4666 
L 2188 738 
L 3669 4666 
L 4325 4666 
L 2547 0 
L 1831 0 
z
" transform="scale(0.015625)"/>
       <path id="DejaVuSans-5d" d="M 1947 4863 
L 1947 -844 
L 622 -844 
L 622 -397 
L 1369 -397 
L 1369 4416 
L 622 4416 
L 622 4863 
L 1947 4863 
z
" transform="scale(0.015625)"/>
      </defs>
      <use xlink:href="#DejaVuSans-45"/>
      <use xlink:href="#DejaVuSans-53" transform="translate(63.183594 0)"/>
      <use xlink:href="#DejaVuSans-41" transform="translate(128.535156 0)"/>
      <use xlink:href="#DejaVuSans-20" transform="translate(196.943359 0)"/>
      <use xlink:href="#DejaVuSans-76" transform="translate(228.730469 0)"/>
      <use xlink:href="#DejaVuSans-6f" transform="translate(287.910156 0)"/>
      <use xlink:href="#DejaVuSans-6c" transform="translate(349.091797 0)"/>
      <use xlink:href="#DejaVuSans-74" transform="translate(376.875 0)"/>
      <use xlink:href="#DejaVuSans-61" transform="translate(416.083984 0)"/>
      <use xlink:href="#DejaVuSans-67" transform="translate(477.363281 0)"/>
      <use xlink:href="#DejaVuSans-65" transform="translate(540.839844 0)"/>
      <use xlink:href="#DejaVuSans-20" transform="translate(602.363281 0)"/>
      <use xlink:href="#DejaVuSans-5b" transform="translate(634.150391 0)"/>
      <use xlink:href="#DejaVuSans-56" transform="translate(673.164062 0)"/>
      <use xlink:href="#DejaVuSans-5d" transform="translate(741.572266 0)"/>
     </g>
    </g>
   </g>
   <g id="matplotlib.axis_2">
    <g id="ytick_1">
     <g id="line2d_28">
      <path d="M 51.378125 258.84327 
L 577.19952 258.84327 
" clip-path="url(#p04c9497339)" style="fill: none; stroke: #b0b0b0; stroke-opacity: 0.3; stroke-width: 0.8; stroke-linecap: square"/>
     </g>
     <g id="line2d_29">
      <defs>
       <path id="m472f2243fe" d="M 0 0 
L -3.5 0 
" style="stroke: #000000; stroke-width: 0.8"/>
      </defs>
      <g>
       <use xlink:href="#m472f2243fe" x="51.378125" y="258.84327" style="stroke: #000000; stroke-width: 0.8"/>
      </g>
     </g>
     <g id="text_5">
      <!-- $\mathdefault{10^{-2}}$ -->
      <g transform="translate(20.878125 262.642489) scale(0.1 -0.1)">
       <defs>
        <path id="DejaVuSans-2212" d="M 678 2272 
L 4684 2272 
L 4684 1741 
L 678 1741 
L 678 2272 
z
" transform="scale(0.015625)"/>
       </defs>
       <use xlink:href="#DejaVuSans-31" transform="translate(0 0.765625)"/>
       <use xlink:href="#DejaVuSans-30" transform="translate(63.623047 0.765625)"/>
       <use xlink:href="#DejaVuSans-2212" transform="translate(128.203125 39.046875) scale(0.7)"/>
       <use xlink:href="#DejaVuSans-32" transform="translate(186.855469 39.046875) scale(0.7)"/>
      </g>
     </g>
    </g>
    <g id="ytick_2">
     <g id="line2d_30">
      <path d="M 51.378125 196.882257 
L 577.19952 196.882257 
" clip-path="url(#p04c9497339)" style="fill: none; stroke: #b0b0b0; stroke-opacity: 0.3; stroke-width: 0.8; stroke-linecap: square"/>
     </g>
     <g id="line2d_31">
      <g>
       <use xlink:href="#m472f2243fe" x="51.378125" y="196.882257" style="stroke: #000000; stroke-width: 0.8"/>
      </g>
     </g>
     <g id="text_6">
      <!-- $\mathdefault{10^{-1}}$ -->
      <g transform="translate(20.878125 200.681476) scale(0.1 -0.1)">
       <use xlink:href="#DejaVuSans-31" transform="translate(0 0.684375)"/>
       <use xlink:href="#DejaVuSans-30" transform="translate(63.623047 0.684375)"/>
       <use xlink:href="#DejaVuSans-2212" transform="translate(128.203125 38.965625) scale(0.7)"/>
       <use xlink:href="#DejaVuSans-31" transform="translate(186.855469 38.965625) scale(0.7)"/>
      </g>
     </g>
    </g>
    <g id="ytick_3">
     <g id="line2d_32">
      <path d="M 51.378125 134.921244 
L 577.19952 134.921244 
" clip-path="url(#p04c9497339)" style="fill: none; stroke: #b0b0b0; stroke-opacity: 0.3; stroke-width: 0.8; stroke-linecap: square"/>
     </g>
     <g id="line2d_33">
      <g>
       <use xlink:href="#m472f2243fe" x="51.378125" y="134.921244" style="stroke: #000000; stroke-width: 0.8"/>
      </g>
     </g>
     <g id="text_7">
      <!-- $\mathdefault{10^{0}}$ -->
      <g transform="translate(26.778125 138.720463) scale(0.1 -0.1)">
       <use xlink:href="#DejaVuSans-31" transform="translate(0 0.765625)"/>
       <use xlink:href="#DejaVuSans-30" transform="translate(63.623047 0.765625)"/>
       <use xlink:href="#DejaVuSans-30" transform="translate(128.203125 39.046875) scale(0.7)"/>
      </g>
     </g>
    </g>
    <g id="ytick_4">
     <g id="line2d_34">
      <path d="M 51.378125 72.960232 
L 577.19952 72.960232 
" clip-path="url(#p04c9497339)" style="fill: none; stroke: #b0b0b0; stroke-opacity: 0.3; stroke-width: 0.8; stroke-linecap: square"/>
     </g>
     <g id="line2d_35">
      <g>
       <use xlink:href="#m472f2243fe" x="51.378125" y="72.960232" style="stroke: #000000; stroke-width: 0.8"/>
      </g>
     </g>
     <g id="text_8">
      <!-- $\mathdefault{10^{1}}$ -->
      <g transform="translate(26.778125 76.75945) scale(0.1 -0.1)">
       <use xlink:href="#DejaVuSans-31" transform="translate(0 0.684375)"/>
       <use xlink:href="#DejaVuSans-30" transform="translate(63.623047 0.684375)"/>
       <use xlink:href="#DejaVuSans-31" transform="translate(128.203125 38.965625) scale(0.7)"/>
      </g>
     </g>
    </g>
    <g id="ytick_5">
     <g id="line2d_36">
      <path d="M 51.378125 10.999219 
L 577.19952 10.999219 
" clip-path="url(#p04c9497339)" style="fill: none; stroke: #b0b0b0; stroke-opacity: 0.3; stroke-width: 0.8; stroke-linecap: square"/>
     </g>
     <g id="line2d_37">
      <g>
       <use xlink:href="#m472f2243fe" x="51.378125" y="10.999219" style="stroke: #000000; stroke-width: 0.8"/>
      </g>
     </g>
     <g id="text_9">
      <!-- $\mathdefault{10^{2}}$ -->
      <g transform="translate(26.778125 14.798437) scale(0.1 -0.1)">
       <use xlink:href="#DejaVuSans-31" transform="translate(0 0.765625)"/>
       <use xlink:href="#DejaVuSans-30" transform="translate(63.623047 0.765625)"/>
       <use xlink:href="#DejaVuSans-32" transform="translate(128.203125 39.046875) scale(0.7)"/>
      </g>
     </g>
    </g>
    <g id="ytick_6">
     <g id="line2d_38">
      <defs>
       <path id="m30d72d1077" d="M 0 0 
L -2 0 
" style="stroke: #000000; stroke-width: 0.6"/>
      </defs>
      <g>
       <use xlink:href="#m30d72d1077" x="51.378125" y="240.191147" style="stroke: #000000; stroke-width: 0.6"/>
      </g>
     </g>
    </g>
    <g id="ytick_7">
     <g id="line2d_39">
      <g>
       <use xlink:href="#m30d72d1077" x="51.378125" y="229.280354" style="stroke: #000000; stroke-width: 0.6"/>
      </g>
     </g>
    </g>
    <g id="ytick_8">
     <g id="line2d_40">
      <g>
       <use xlink:href="#m30d72d1077" x="51.378125" y="221.539023" style="stroke: #000000; stroke-width: 0.6"/>
      </g>
     </g>
    </g>
    <g id="ytick_9">
     <g id="line2d_41">
      <g>
       <use xlink:href="#m30d72d1077" x="51.378125" y="215.534381" style="stroke: #000000; stroke-width: 0.6"/>
      </g>
     </g>
    </g>
    <g id="ytick_10">
     <g id="line2d_42">
      <g>
       <use xlink:href="#m30d72d1077" x="51.378125" y="210.62823" style="stroke: #000000; stroke-width: 0.6"/>
      </g>
     </g>
    </g>
    <g id="ytick_11">
     <g id="line2d_43">
      <g>
       <use xlink:href="#m30d72d1077" x="51.378125" y="206.48014" style="stroke: #000000; stroke-width: 0.6"/>
      </g>
     </g>
    </g>
    <g id="ytick_12">
     <g id="line2d_44">
      <g>
       <use xlink:href="#m30d72d1077" x="51.378125" y="202.8869" style="stroke: #000000; stroke-width: 0.6"/>
      </g>
     </g>
    </g>
    <g id="ytick_13">
     <g id="line2d_45">
      <g>
       <use xlink:href="#m30d72d1077" x="51.378125" y="199.717438" style="stroke: #000000; stroke-width: 0.6"/>
      </g>
     </g>
    </g>
    <g id="ytick_14">
     <g id="line2d_46">
      <g>
       <use xlink:href="#m30d72d1077" x="51.378125" y="178.230134" style="stroke: #000000; stroke-width: 0.6"/>
      </g>
     </g>
    </g>
    <g id="ytick_15">
     <g id="line2d_47">
      <g>
       <use xlink:href="#m30d72d1077" x="51.378125" y="167.319341" style="stroke: #000000; stroke-width: 0.6"/>
      </g>
     </g>
    </g>
    <g id="ytick_16">
     <g id="line2d_48">
      <g>
       <use xlink:href="#m30d72d1077" x="51.378125" y="159.57801" style="stroke: #000000; stroke-width: 0.6"/>
      </g>
     </g>
    </g>
    <g id="ytick_17">
     <g id="line2d_49">
      <g>
       <use xlink:href="#m30d72d1077" x="51.378125" y="153.573368" style="stroke: #000000; stroke-width: 0.6"/>
      </g>
     </g>
    </g>
    <g id="ytick_18">
     <g id="line2d_50">
      <g>
       <use xlink:href="#m30d72d1077" x="51.378125" y="148.667218" style="stroke: #000000; stroke-width: 0.6"/>
      </g>
     </g>
    </g>
    <g id="ytick_19">
     <g id="line2d_51">
      <g>
       <use xlink:href="#m30d72d1077" x="51.378125" y="144.519127" style="stroke: #000000; stroke-width: 0.6"/>
      </g>
     </g>
    </g>
    <g id="ytick_20">
     <g id="line2d_52">
      <g>
       <use xlink:href="#m30d72d1077" x="51.378125" y="140.925887" style="stroke: #000000; stroke-width: 0.6"/>
      </g>
     </g>
    </g>
    <g id="ytick_21">
     <g id="line2d_53">
      <g>
       <use xlink:href="#m30d72d1077" x="51.378125" y="137.756425" style="stroke: #000000; stroke-width: 0.6"/>
      </g>
     </g>
    </g>
    <g id="ytick_22">
     <g id="line2d_54">
      <g>
       <use xlink:href="#m30d72d1077" x="51.378125" y="116.269121" style="stroke: #000000; stroke-width: 0.6"/>
      </g>
     </g>
    </g>
    <g id="ytick_23">
     <g id="line2d_55">
      <g>
       <use xlink:href="#m30d72d1077" x="51.378125" y="105.358328" style="stroke: #000000; stroke-width: 0.6"/>
      </g>
     </g>
    </g>
    <g id="ytick_24">
     <g id="line2d_56">
      <g>
       <use xlink:href="#m30d72d1077" x="51.378125" y="97.616998" style="stroke: #000000; stroke-width: 0.6"/>
      </g>
     </g>
    </g>
    <g id="ytick_25">
     <g id="line2d_57">
      <g>
       <use xlink:href="#m30d72d1077" x="51.378125" y="91.612355" style="stroke: #000000; stroke-width: 0.6"/>
      </g>
     </g>
    </g>
    <g id="ytick_26">
     <g id="line2d_58">
      <g>
       <use xlink:href="#m30d72d1077" x="51.378125" y="86.706205" style="stroke: #000000; stroke-width: 0.6"/>
      </g>
     </g>
    </g>
    <g id="ytick_27">
     <g id="line2d_59">
      <g>
       <use xlink:href="#m30d72d1077" x="51.378125" y="82.558114" style="stroke: #000000; stroke-width: 0.6"/>
      </g>
     </g>
    </g>
    <g id="ytick_28">
     <g id="line2d_60">
      <g>
       <use xlink:href="#m30d72d1077" x="51.378125" y="78.964874" style="stroke: #000000; stroke-width: 0.6"/>
      </g>
     </g>
    </g>
    <g id="ytick_29">
     <g id="line2d_61">
      <g>
       <use xlink:href="#m30d72d1077" x="51.378125" y="75.795412" style="stroke: #000000; stroke-width: 0.6"/>
      </g>
     </g>
    </g>
    <g id="ytick_30">
     <g id="line2d_62">
      <g>
       <use xlink:href="#m30d72d1077" x="51.378125" y="54.308108" style="stroke: #000000; stroke-width: 0.6"/>
      </g>
     </g>
    </g>
    <g id="ytick_31">
     <g id="line2d_63">
      <g>
       <use xlink:href="#m30d72d1077" x="51.378125" y="43.397315" style="stroke: #000000; stroke-width: 0.6"/>
      </g>
     </g>
    </g>
    <g id="ytick_32">
     <g id="line2d_64">
      <g>
       <use xlink:href="#m30d72d1077" x="51.378125" y="35.655985" style="stroke: #000000; stroke-width: 0.6"/>
      </g>
     </g>
    </g>
    <g id="ytick_33">
     <g id="line2d_65">
      <g>
       <use xlink:href="#m30d72d1077" x="51.378125" y="29.651342" style="stroke: #000000; stroke-width: 0.6"/>
      </g>
     </g>
    </g>
    <g id="ytick_34">
     <g id="line2d_66">
      <g>
       <use xlink:href="#m30d72d1077" x="51.378125" y="24.745192" style="stroke: #000000; stroke-width: 0.6"/>
      </g>
     </g>
    </g>
    <g id="ytick_35">
     <g id="line2d_67">
      <g>
       <use xlink:href="#m30d72d1077" x="51.378125" y="20.597101" style="stroke: #000000; stroke-width: 0.6"/>
      </g>
     </g>
    </g>
    <g id="ytick_36">
     <g id="line2d_68">
      <g>
       <use xlink:href="#m30d72d1077" x="51.378125" y="17.003861" style="stroke: #000000; stroke-width: 0.6"/>
      </g>
     </g>
    </g>
    <g id="ytick_37">
     <g id="line2d_69">
      <g>
       <use xlink:href="#m30d72d1077" x="51.378125" y="13.834399" style="stroke: #000000; stroke-width: 0.6"/>
      </g>
     </g>
    </g>
    <g id="text_10">
     <!-- Coincidence Rate [Hz] -->
     <g transform="translate(14.798438 190.339994) rotate(-90) scale(0.1 -0.1)">
      <defs>
       <path id="DejaVuSans-43" d="M 4122 4306 
L 4122 3641 
Q 3803 3938 3442 4084 
Q 3081 4231 2675 4231 
Q 1875 4231 1450 3742 
Q 1025 3253 1025 2328 
Q 1025 1406 1450 917 
Q 1875 428 2675 428 
Q 3081 428 3442 575 
Q 3803 722 4122 1019 
L 4122 359 
Q 3791 134 3420 21 
Q 3050 -91 2638 -91 
Q 1578 -91 968 557 
Q 359 1206 359 2328 
Q 359 3453 968 4101 
Q 1578 4750 2638 4750 
Q 3056 4750 3426 4639 
Q 3797 4528 4122 4306 
z
" transform="scale(0.015625)"/>
       <path id="DejaVuSans-69" d="M 603 3500 
L 1178 3500 
L 1178 0 
L 603 0 
L 603 3500 
z
M 603 4863 
L 1178 4863 
L 1178 4134 
L 603 4134 
L 603 4863 
z
" transform="scale(0.015625)"/>
       <path id="DejaVuSans-6e" d="M 3513 2113 
L 3513 0 
L 2938 0 
L 2938 2094 
Q 2938 2591 2744 2837 
Q 2550 3084 2163 3084 
Q 1697 3084 1428 2787 
Q 1159 2491 1159 1978 
L 1159 0 
L 581 0 
L 581 3500 
L 1159 3500 
L 1159 2956 
Q 1366 3272 1645 3428 
Q 1925 3584 2291 3584 
Q 2894 3584 3203 3211 
Q 3513 2838 3513 2113 
z
" transform="scale(0.015625)"/>
       <path id="DejaVuSans-63" d="M 3122 3366 
L 3122 2828 
Q 2878 2963 2633 3030 
Q 2388 3097 2138 3097 
Q 1578 3097 1268 2742 
Q 959 2388 959 1747 
Q 959 1106 1268 751 
Q 1578 397 2138 397 
Q 2388 397 2633 464 
Q 2878 531 3122 666 
L 3122 134 
Q 2881 22 2623 -34 
Q 2366 -91 2075 -91 
Q 1284 -91 818 406 
Q 353 903 353 1747 
Q 353 2603 823 3093 
Q 1294 3584 2113 3584 
Q 2378 3584 2631 3529 
Q 2884 3475 3122 3366 
z
" transform="scale(0.015625)"/>
       <path id="DejaVuSans-64" d="M 2906 2969 
L 2906 4863 
L 3481 4863 
L 3481 0 
L 2906 0 
L 2906 525 
Q 2725 213 2448 61 
Q 2172 -91 1784 -91 
Q 1150 -91 751 415 
Q 353 922 353 1747 
Q 353 2572 751 3078 
Q 1150 3584 1784 3584 
Q 2172 3584 2448 3432 
Q 2725 3281 2906 2969 
z
M 947 1747 
Q 947 1113 1208 752 
Q 1469 391 1925 391 
Q 2381 391 2643 752 
Q 2906 1113 2906 1747 
Q 2906 2381 2643 2742 
Q 2381 3103 1925 3103 
Q 1469 3103 1208 2742 
Q 947 2381 947 1747 
z
" transform="scale(0.015625)"/>
       <path id="DejaVuSans-52" d="M 2841 2188 
Q 3044 2119 3236 1894 
Q 3428 1669 3622 1275 
L 4263 0 
L 3584 0 
L 2988 1197 
Q 2756 1666 2539 1819 
Q 2322 1972 1947 1972 
L 1259 1972 
L 1259 0 
L 628 0 
L 628 4666 
L 2053 4666 
Q 2853 4666 3247 4331 
Q 3641 3997 3641 3322 
Q 3641 2881 3436 2590 
Q 3231 2300 2841 2188 
z
M 1259 4147 
L 1259 2491 
L 2053 2491 
Q 2509 2491 2742 2702 
Q 2975 2913 2975 3322 
Q 2975 3731 2742 3939 
Q 2509 4147 2053 4147 
L 1259 4147 
z
" transform="scale(0.015625)"/>
       <path id="DejaVuSans-48" d="M 628 4666 
L 1259 4666 
L 1259 2753 
L 3553 2753 
L 3553 4666 
L 4184 4666 
L 4184 0 
L 3553 0 
L 3553 2222 
L 1259 2222 
L 1259 0 
L 628 0 
L 628 4666 
z
" transform="scale(0.015625)"/>
       <path id="DejaVuSans-7a" d="M 353 3500 
L 3084 3500 
L 3084 2975 
L 922 459 
L 3084 459 
L 3084 0 
L 275 0 
L 275 525 
L 2438 3041 
L 353 3041 
L 353 3500 
z
" transform="scale(0.015625)"/>
      </defs>
      <use xlink:href="#DejaVuSans-43"/>
      <use xlink:href="#DejaVuSans-6f" transform="translate(69.824219 0)"/>
      <use xlink:href="#DejaVuSans-69" transform="translate(131.005859 0)"/>
      <use xlink:href="#DejaVuSans-6e" transform="translate(158.789062 0)"/>
      <use xlink:href="#DejaVuSans-63" transform="translate(222.167969 0)"/>
      <use xlink:href="#DejaVuSans-69" transform="translate(277.148438 0)"/>
      <use xlink:href="#DejaVuSans-64" transform="translate(304.931641 0)"/>
      <use xlink:href="#DejaVuSans-65" transform="translate(368.408203 0)"/>
      <use xlink:href="#DejaVuSans-6e" transform="translate(429.931641 0)"/>
      <use xlink:href="#DejaVuSans-63" transform="translate(493.310547 0)"/>
      <use xlink:href="#DejaVuSans-65" transform="translate(548.291016 0)"/>
      <use xlink:href="#DejaVuSans-20" transform="translate(609.814453 0)"/>
      <use xlink:href="#DejaVuSans-52" transform="translate(641.601562 0)"/>
      <use xlink:href="#DejaVuSans-61" transform="translate(708.833984 0)"/>
      <use xlink:href="#DejaVuSans-74" transform="translate(770.113281 0)"/>
      <use xlink:href="#DejaVuSans-65" transform="translate(809.322266 0)"/>
      <use xlink:href="#DejaVuSans-20" transform="translate(870.845703 0)"/>
      <use xlink:href="#DejaVuSans-5b" transform="translate(902.632812 0)"/>
      <use xlink:href="#DejaVuSans-48" transform="translate(941.646484 0)"/>
      <use xlink:href="#DejaVuSans-7a" transform="translate(1016.841797 0)"/>
      <use xlink:href="#DejaVuSans-5d" transform="translate(1069.332031 0)"/>
     </g>
    </g>
   </g>
   <g id="line2d_70">
    <path d="M 75.279098 203.716402 
L 83.114935 201.860472 
L 90.958766 198.755819 
L 98.797253 195.117287 
L 106.629204 191.121898 
L 114.461047 187.114536 
L 122.303423 182.933295 
L 130.140132 178.780579 
L 137.97308 174.85635 
L 145.815469 170.855611 
L 153.64997 166.908027 
L 161.487239 163.19501 
L 169.318073 159.257549 
L 177.15455 155.436413 
L 184.995517 151.688216 
L 192.830933 147.958223 
L 200.667058 144.109279 
L 208.503999 140.430768 
L 216.337505 136.746988 
L 224.17386 132.979028 
L 232.010025 129.142195 
L 239.84805 125.249738 
L 247.682421 121.379528 
L 255.519354 117.414115 
L 263.356673 113.626512 
L 271.192528 109.688008 
L 279.028705 105.627531 
L 286.865523 101.704624 
L 294.700433 97.826945 
L 302.537305 93.828802 
L 310.373213 89.851914 
L 318.210151 86.099164 
L 326.046286 82.079885 
L 333.883054 78.209518 
L 341.718986 74.345083 
L 349.555503 70.670809 
L 357.391609 66.954401 
L 365.227972 63.288128 
L 373.064003 59.608157 
L 380.900352 56.006286 
L 388.736442 52.617564 
L 396.573078 49.233942 
L 404.409264 45.806047 
L 412.245481 42.646353 
L 420.081627 39.525377 
L 427.91793 36.493667 
L 435.754143 33.676258 
L 443.59055 31.060008 
L 451.426868 28.809113 
L 459.2631 26.99288 
L 467.099312 25.668231 
L 474.935668 25.109161 
L 482.772028 25.498629 
L 490.60824 27.759295 
L 498.444604 33.235329 
L 506.280895 47.86903 
L 514.117156 88.795503 
L 521.95337 173.92006 
L 529.789702 197.336617 
L 537.625957 250.719564 
L 539.299308 297.39952 
" clip-path="url(#p04c9497339)" style="fill: none; stroke: #000000; stroke-width: 1.5; stroke-linecap: square"/>
   </g>
   <g id="line2d_71">
    <defs>
     <path id="m1fa076cde0" d="M 0 1.5 
C 0.397805 1.5 0.77937 1.341951 1.06066 1.06066 
C 1.341951 0.77937 1.5 0.397805 1.5 0 
C 1.5 -0.397805 1.341951 -0.77937 1.06066 -1.06066 
C 0.77937 -1.341951 0.397805 -1.5 0 -1.5 
C -0.397805 -1.5 -0.77937 -1.341951 -1.06066 -1.06066 
C -1.341951 -0.77937 -1.5 -0.397805 -1.5 0 
C -1.5 0.397805 -1.341951 0.77937 -1.06066 1.06066 
C -0.77937 1.341951 -0.397805 1.5 0 1.5 
z
" style="stroke: #ff0000"/>
    </defs>
    <g clip-path="url(#p04c9497339)">
     <use xlink:href="#m1fa076cde0" x="75.279098" y="207.417285" style="fill: #ff0000; stroke: #ff0000"/>
     <use xlink:href="#m1fa076cde0" x="83.114935" y="203.378243" style="fill: #ff0000; stroke: #ff0000"/>
     <use xlink:href="#m1fa076cde0" x="90.958766" y="199.320977" style="fill: #ff0000; stroke: #ff0000"/>
     <use xlink:href="#m1fa076cde0" x="98.797253" y="195.285718" style="fill: #ff0000; stroke: #ff0000"/>
     <use xlink:href="#m1fa076cde0" x="106.629204" y="191.124733" style="fill: #ff0000; stroke: #ff0000"/>
     <use xlink:href="#m1fa076cde0" x="114.461047" y="187.043913" style="fill: #ff0000; stroke: #ff0000"/>
     <use xlink:href="#m1fa076cde0" x="122.303423" y="182.836442" style="fill: #ff0000; stroke: #ff0000"/>
     <use xlink:href="#m1fa076cde0" x="130.140132" y="178.691848" style="fill: #ff0000; stroke: #ff0000"/>
     <use xlink:href="#m1fa076cde0" x="137.97308" y="174.793999" style="fill: #ff0000; stroke: #ff0000"/>
     <use xlink:href="#m1fa076cde0" x="145.815469" y="170.815114" style="fill: #ff0000; stroke: #ff0000"/>
     <use xlink:href="#m1fa076cde0" x="153.64997" y="166.905094" style="fill: #ff0000; stroke: #ff0000"/>
     <use xlink:href="#m1fa076cde0" x="161.487239" y="163.219819" style="fill: #ff0000; stroke: #ff0000"/>
     <use xlink:href="#m1fa076cde0" x="169.318073" y="159.272083" style="fill: #ff0000; stroke: #ff0000"/>
     <use xlink:href="#m1fa076cde0" x="177.15455" y="155.453119" style="fill: #ff0000; stroke: #ff0000"/>
     <use xlink:href="#m1fa076cde0" x="184.995517" y="151.707195" style="fill: #ff0000; stroke: #ff0000"/>
     <use xlink:href="#m1fa076cde0" x="192.830933" y="147.971108" style="fill: #ff0000; stroke: #ff0000"/>
     <use xlink:href="#m1fa076cde0" x="200.667058" y="144.130507" style="fill: #ff0000; stroke: #ff0000"/>
     <use xlink:href="#m1fa076cde0" x="208.503999" y="140.448573" style="fill: #ff0000; stroke: #ff0000"/>
     <use xlink:href="#m1fa076cde0" x="216.337505" y="136.761152" style="fill: #ff0000; stroke: #ff0000"/>
     <use xlink:href="#m1fa076cde0" x="224.17386" y="132.999131" style="fill: #ff0000; stroke: #ff0000"/>
     <use xlink:href="#m1fa076cde0" x="232.010025" y="129.153823" style="fill: #ff0000; stroke: #ff0000"/>
     <use xlink:href="#m1fa076cde0" x="239.84805" y="125.272407" style="fill: #ff0000; stroke: #ff0000"/>
     <use xlink:href="#m1fa076cde0" x="247.682421" y="121.393793" style="fill: #ff0000; stroke: #ff0000"/>
     <use xlink:href="#m1fa076cde0" x="255.519354" y="117.435906" style="fill: #ff0000; stroke: #ff0000"/>
     <use xlink:href="#m1fa076cde0" x="263.356673" y="113.650722" style="fill: #ff0000; stroke: #ff0000"/>
     <use xlink:href="#m1fa076cde0" x="271.192528" y="109.701387" style="fill: #ff0000; stroke: #ff0000"/>
     <use xlink:href="#m1fa076cde0" x="279.028705" y="105.659363" style="fill: #ff0000; stroke: #ff0000"/>
     <use xlink:href="#m1fa076cde0" x="286.865523" y="101.720607" style="fill: #ff0000; stroke: #ff0000"/>
     <use xlink:href="#m1fa076cde0" x="294.700433" y="97.835568" style="fill: #ff0000; stroke: #ff0000"/>
     <use xlink:href="#m1fa076cde0" x="302.537305" y="93.858454" style="fill: #ff0000; stroke: #ff0000"/>
     <use xlink:href="#m1fa076cde0" x="310.373213" y="89.875391" style="fill: #ff0000; stroke: #ff0000"/>
     <use xlink:href="#m1fa076cde0" x="318.210151" y="86.113559" style="fill: #ff0000; stroke: #ff0000"/>
     <use xlink:href="#m1fa076cde0" x="326.046286" y="82.095038" style="fill: #ff0000; stroke: #ff0000"/>
     <use xlink:href="#m1fa076cde0" x="333.883054" y="78.227383" style="fill: #ff0000; stroke: #ff0000"/>
     <use xlink:href="#m1fa076cde0" x="341.718986" y="74.368712" style="fill: #ff0000; stroke: #ff0000"/>
     <use xlink:href="#m1fa076cde0" x="349.555503" y="70.696602" style="fill: #ff0000; stroke: #ff0000"/>
     <use xlink:href="#m1fa076cde0" x="357.391609" y="66.9829" style="fill: #ff0000; stroke: #ff0000"/>
     <use xlink:href="#m1fa076cde0" x="365.227972" y="63.317411" style="fill: #ff0000; stroke: #ff0000"/>
     <use xlink:href="#m1fa076cde0" x="373.064003" y="59.637498" style="fill: #ff0000; stroke: #ff0000"/>
     <use xlink:href="#m1fa076cde0" x="380.900352" y="56.032661" style="fill: #ff0000; stroke: #ff0000"/>
     <use xlink:href="#m1fa076cde0" x="388.736442" y="52.637997" style="fill: #ff0000; stroke: #ff0000"/>
     <use xlink:href="#m1fa076cde0" x="396.573078" y="49.258832" style="fill: #ff0000; stroke: #ff0000"/>
     <use xlink:href="#m1fa076cde0" x="404.409264" y="45.841466" style="fill: #ff0000; stroke: #ff0000"/>
     <use xlink:href="#m1fa076cde0" x="412.245481" y="42.672278" style="fill: #ff0000; stroke: #ff0000"/>
     <use xlink:href="#m1fa076cde0" x="420.081627" y="39.555904" style="fill: #ff0000; stroke: #ff0000"/>
     <use xlink:href="#m1fa076cde0" x="427.91793" y="36.523072" style="fill: #ff0000; stroke: #ff0000"/>
     <use xlink:href="#m1fa076cde0" x="435.754143" y="33.714099" style="fill: #ff0000; stroke: #ff0000"/>
     <use xlink:href="#m1fa076cde0" x="443.59055" y="31.089317" style="fill: #ff0000; stroke: #ff0000"/>
     <use xlink:href="#m1fa076cde0" x="451.426868" y="28.835838" style="fill: #ff0000; stroke: #ff0000"/>
     <use xlink:href="#m1fa076cde0" x="459.2631" y="27.023936" style="fill: #ff0000; stroke: #ff0000"/>
     <use xlink:href="#m1fa076cde0" x="467.099312" y="25.698303" style="fill: #ff0000; stroke: #ff0000"/>
     <use xlink:href="#m1fa076cde0" x="474.935668" y="25.144118" style="fill: #ff0000; stroke: #ff0000"/>
     <use xlink:href="#m1fa076cde0" x="482.772028" y="25.549132" style="fill: #ff0000; stroke: #ff0000"/>
     <use xlink:href="#m1fa076cde0" x="490.60824" y="27.811643" style="fill: #ff0000; stroke: #ff0000"/>
     <use xlink:href="#m1fa076cde0" x="498.444604" y="33.276712" style="fill: #ff0000; stroke: #ff0000"/>
     <use xlink:href="#m1fa076cde0" x="506.280895" y="47.960403" style="fill: #ff0000; stroke: #ff0000"/>
     <use xlink:href="#m1fa076cde0" x="514.117156" y="88.918056" style="fill: #ff0000; stroke: #ff0000"/>
     <use xlink:href="#m1fa076cde0" x="521.95337" y="174.561265" style="fill: #ff0000; stroke: #ff0000"/>
     <use xlink:href="#m1fa076cde0" x="529.789702" y="197.554112" style="fill: #ff0000; stroke: #ff0000"/>
     <use xlink:href="#m1fa076cde0" x="537.625957" y="249.286548" style="fill: #ff0000; stroke: #ff0000"/>
     <use xlink:href="#m1fa076cde0" x="545.462234" y="488.536013" style="fill: #ff0000; stroke: #ff0000"/>
     <use xlink:href="#m1fa076cde0" x="548.114715" y="21341.76544" style="fill: #ff0000; stroke: #ff0000"/>
    </g>
   </g>
   <g id="patch_3">
    <path d="M 51.378125 258.84327 
L 51.378125 10.999219 
" style="fill: none; stroke: #000000; stroke-width: 0.8; stroke-linejoin: miter; stroke-linecap: square"/>
   </g>
   <g id="patch_4">
    <path d="M 577.19952 258.84327 
L 577.19952 10.999219 
" style="fill: none; stroke: #000000; stroke-width: 0.8; stroke-linejoin: miter; stroke-linecap: square"/>
   </g>
   <g id="patch_5">
    <path d="M 51.378125 258.84327 
L 577.19952 258.84327 
" style="fill: none; stroke: #000000; stroke-width: 0.8; stroke-linejoin: miter; stroke-linecap: square"/>
   </g>
   <g id="patch_6">
    <path d="M 51.378125 10.999219 
L 577.19952 10.999219 
" style="fill: none; stroke: #000000; stroke-width: 0.8; stroke-linejoin: miter; stroke-linecap: square"/>
   </g>
   <g id="legend_1">
    <g id="patch_7">
     <path d="M 58.378125 48.633594 
L 225.410938 48.633594 
Q 227.410938 48.633594 227.410938 46.633594 
L 227.410938 17.999219 
Q 227.410938 15.999219 225.410938 15.999219 
L 58.378125 15.999219 
Q 56.378125 15.999219 56.378125 17.999219 
L 56.378125 46.633594 
Q 56.378125 48.633594 58.378125 48.633594 
z
" style="fill: #ffffff; opacity: 0.8; stroke: #cccccc; stroke-linejoin: miter"/>
    </g>
    <g id="line2d_72">
     <path d="M 60.378125 24.097656 
L 70.378125 24.097656 
L 80.378125 24.097656 
" style="fill: none; stroke: #000000; stroke-width: 1.5; stroke-linecap: square"/>
    </g>
    <g id="text_11">
     <!-- Reference -->
     <g transform="translate(88.378125 27.597656) scale(0.1 -0.1)">
      <defs>
       <path id="DejaVuSans-66" d="M 2375 4863 
L 2375 4384 
L 1825 4384 
Q 1516 4384 1395 4259 
Q 1275 4134 1275 3809 
L 1275 3500 
L 2222 3500 
L 2222 3053 
L 1275 3053 
L 1275 0 
L 697 0 
L 697 3053 
L 147 3053 
L 147 3500 
L 697 3500 
L 697 3744 
Q 697 4328 969 4595 
Q 1241 4863 1831 4863 
L 2375 4863 
z
" transform="scale(0.015625)"/>
       <path id="DejaVuSans-72" d="M 2631 2963 
Q 2534 3019 2420 3045 
Q 2306 3072 2169 3072 
Q 1681 3072 1420 2755 
Q 1159 2438 1159 1844 
L 1159 0 
L 581 0 
L 581 3500 
L 1159 3500 
L 1159 2956 
Q 1341 3275 1631 3429 
Q 1922 3584 2338 3584 
Q 2397 3584 2469 3576 
Q 2541 3569 2628 3553 
L 2631 2963 
z
" transform="scale(0.015625)"/>
      </defs>
      <use xlink:href="#DejaVuSans-52"/>
      <use xlink:href="#DejaVuSans-65" transform="translate(64.982422 0)"/>
      <use xlink:href="#DejaVuSans-66" transform="translate(126.505859 0)"/>
      <use xlink:href="#DejaVuSans-65" transform="translate(161.710938 0)"/>
      <use xlink:href="#DejaVuSans-72" transform="translate(223.234375 0)"/>
      <use xlink:href="#DejaVuSans-65" transform="translate(262.097656 0)"/>
      <use xlink:href="#DejaVuSans-6e" transform="translate(323.621094 0)"/>
      <use xlink:href="#DejaVuSans-63" transform="translate(387 0)"/>
      <use xlink:href="#DejaVuSans-65" transform="translate(441.980469 0)"/>
     </g>
    </g>
    <g id="line2d_73">
     <g>
      <use xlink:href="#m1fa076cde0" x="70.378125" y="38.775781" style="fill: #ff0000; stroke: #ff0000"/>
     </g>
    </g>
    <g id="text_12">
     <!-- calculate_coincidence_rate -->
     <g transform="translate(88.378125 42.275781) scale(0.1 -0.1)">
      <defs>
       <path id="DejaVuSans-75" d="M 544 1381 
L 544 3500 
L 1119 3500 
L 1119 1403 
Q 1119 906 1312 657 
Q 1506 409 1894 409 
Q 2359 409 2629 706 
Q 2900 1003 2900 1516 
L 2900 3500 
L 3475 3500 
L 3475 0 
L 2900 0 
L 2900 538 
Q 2691 219 2414 64 
Q 2138 -91 1772 -91 
Q 1169 -91 856 284 
Q 544 659 544 1381 
z
M 1991 3584 
L 1991 3584 
z
" transform="scale(0.015625)"/>
       <path id="DejaVuSans-5f" d="M 3263 -1063 
L 3263 -1509 
L -63 -1509 
L -63 -1063 
L 3263 -1063 
z
" transform="scale(0.015625)"/>
      </defs>
      <use xlink:href="#DejaVuSans-63"/>
      <use xlink:href="#DejaVuSans-61" transform="translate(54.980469 0)"/>
      <use xlink:href="#DejaVuSans-6c" transform="translate(116.259766 0)"/>
      <use xlink:href="#DejaVuSans-63" transform="translate(144.042969 0)"/>
      <use xlink:href="#DejaVuSans-75" transform="translate(199.023438 0)"/>
      <use xlink:href="#DejaVuSans-6c" transform="translate(262.402344 0)"/>
      <use xlink:href="#DejaVuSans-61" transform="translate(290.185547 0)"/>
      <use xlink:href="#DejaVuSans-74" transform="translate(351.464844 0)"/>
      <use xlink:href="#DejaVuSans-65" transform="translate(390.673828 0)"/>
      <use xlink:href="#DejaVuSans-5f" transform="translate(452.197266 0)"/>
      <use xlink:href="#DejaVuSans-63" transform="translate(502.197266 0)"/>
      <use xlink:href="#DejaVuSans-6f" transform="translate(557.177734 0)"/>
      <use xlink:href="#DejaVuSans-69" transform="translate(618.359375 0)"/>
      <use xlink:href="#DejaVuSans-6e" transform="translate(646.142578 0)"/>
      <use xlink:href="#DejaVuSans-63" transform="translate(709.521484 0)"/>
      <use xlink:href="#DejaVuSans-69" transform="translate(764.501953 0)"/>
      <use xlink:href="#DejaVuSans-64" transform="translate(792.285156 0)"/>
      <use xlink:href="#DejaVuSans-65" transform="translate(855.761719 0)"/>
      <use xlink:href="#DejaVuSans-6e" transform="translate(917.285156 0)"/>
      <use xlink:href="#DejaVuSans-63" transform="translate(980.664062 0)"/>
      <use xlink:href="#DejaVuSans-65" transform="translate(1035.644531 0)"/>
      <use xlink:href="#DejaVuSans-5f" transform="translate(1097.167969 0)"/>
      <use xlink:href="#DejaVuSans-72" transform="translate(1147.167969 0)"/>
      <use xlink:href="#DejaVuSans-61" transform="translate(1188.28125 0)"/>
      <use xlink:href="#DejaVuSans-74" transform="translate(1249.560547 0)"/>
      <use xlink:href="#DejaVuSans-65" transform="translate(1288.769531 0)"/>
     </g>
    </g>
   </g>
  </g>
 </g>
 <defs>
  <clipPath id="p04c9497339">
   <rect x="51.378125" y="10.999219" width="525.821395" height="247.844051"/>
  </clipPath>
 </defs>
</svg>
